<svg
  xmlns="http://www.w3.org/2000/svg"
  width="1960"
  height="1240"
  viewBox="0 0 1960 1240"
  role="img"
  aria-label="Demo Gallery terminal screenshot"
>
  <style>svg{background:#06080d}.frame{fill:#0d1117;stroke:#2dd4bf;stroke-width:4}.title{fill:#e6edf3;font:700 36px ui-monospace,SFMono-Regular,Menlo,Consolas,monospace}.term{fill:#c9d1d9;font:32px ui-monospace,SFMono-Regular,Menlo,Consolas,monospace}.accent{fill:#67e8f9}.bar{fill:#111827;stroke:#374151}</style>
  <rect x="56" y="56" width="1848" height="1128" rx="24" class="frame" />
  <rect x="56" y="56" width="1848" height="88" rx="24" class="bar" />
  <text x="100" y="114" class="title">Demo Gallery</text>
  <circle cx="1760" cy="100" r="12" class="accent" />
  <circle cx="1808" cy="100" r="12" fill="#facc15" />
  <circle cx="1856" cy="100" r="12" fill="#fb7185" />
  <rect x="80" y="144" width="1800" height="1016" rx="16" fill="#090d14" opacity="0.86" />
  <text x="100" y="212" class="term"># Demo Gallery</text>
  <text x="100" y="264" class="term"></text>
  <text x="100" y="316" class="term">Launch targets: 34 across app, check, demo, report, tool</text>
  <text
    x="100"
    y="368"
    class="term"
  >Components: 36 across data, feedback, input, layout, navigation, overlay, primitive, visualization</text>
  <text x="100" y="420" class="term">Renderer backends: 2/3 available       Runtime capabilities: 2/5</text>
  <text
    x="100"
    y="472"
    class="term"
  >Theme packs: 3, layers: 0              Plugin packs: shell, visualization, data</text>
  <text x="100" y="524" class="term"></text>
  <text x="100" y="576" class="term">Terminal plan:</text>
  <text x="100" y="628" class="term">color    truecolor</text>
  <text x="100" y="680" class="term">text     unicode</text>
  <text x="100" y="732" class="term">mouse    sgr</text>
  <text x="100" y="784" class="term">screen   alternate</text>
  <text x="100" y="836" class="term"></text>
  <text x="100" y="888" class="term">Recommended tour:</text>
  <text x="100" y="940" class="term">1. ./visualization showcase      full widget wall</text>
  <text x="100" y="992" class="term">2. ./visualization neon         OpenTUI/web Neon Exodus suite</text>
  <text x="100" y="1044" class="term">3. ./visualization form         forms, commands, and signal bindings</text>
  <text x="100" y="1096" class="term">4. ./visualization table        data table and selection commands</text>
</svg>
