<svg xmlns="http://www.w3.org/2000/svg" width="2584" height="2046" viewBox="0 0 2584 2046" class="theme-neon" role="img" aria-label="Showcase terminal screenshot">
<style>
svg{background:#06080d}.frame{fill:#0d1117;stroke:var(--border);stroke-width:4}.title{fill:#f8fafc;font:700 46px ui-monospace,SFMono-Regular,Menlo,Consolas,monospace}.term{font:34px ui-monospace,SFMono-Regular,Menlo,Consolas,monospace;dominant-baseline:alphabetic}.bar{fill:#111827;stroke:#374151}.screen{fill:#090d14;opacity:.91}.glow{filter:drop-shadow(0 0 18px var(--glow))}.theme-neon{--border:#2dd4bf;--glow:#2dd4bf}.theme-exodus{--border:#a855f7;--glow:#ff4fd8}.theme-system{--border:#38bdf8;--glow:#38bdf8}.theme-gallery{--border:#818cf8;--glow:#818cf8}.theme-theme{--border:#ac7cc8;--glow:#f694d8}.theme-docs{--border:#64748b;--glow:#93c5fd}
</style>
<rect x="32" y="32" width="2520" height="1982" rx="24" class="frame glow"/>
<rect x="32" y="32" width="2520" height="78" rx="24" class="bar"/>
<text x="64" y="86" class="title">Showcase</text>
<circle cx="2408" cy="72" r="12" fill="#a3e635"/>
<circle cx="2456" cy="72" r="12" fill="#facc15"/>
<circle cx="2504" cy="72" r="12" fill="#fb7185"/>
<rect x="52" y="110" width="2480" height="1884" rx="16" class="screen"/>
<g><rect x="64.0" y="124" width="2472.0" height="52" fill="rgb(10,16,32)"/><text x="84.6" y="168" class="term" style="fill:rgb(255,66,49);font-weight:700">NEON&#160;EXODUS&#160;/&#160;ACEROLA&#160;ASCII&#160;SHOWCASE&#160;/&#160;ALL&#160;/&#160;07:07:15&#160;&#160;&#160;&#160;&#160;&#160;&#160;&#160;&#160;&#160;&#160;&#160;&#160;&#160;&#160;&#160;&#160;&#160;&#160;&#160;&#160;&#160;&#160;&#160;&#160;&#160;&#160;&#160;&#160;&#160;&#160;&#160;&#160;&#160;&#160;&#160;&#160;&#160;&#160;&#160;&#160;&#160;&#160;&#160;&#160;&#160;&#160;&#160;&#160;&#160;&#160;&#160;&#160;&#160;&#160;&#160;&#160;&#160;&#160;&#160;&#160;&#160;&#160;&#160;&#160;</text></g>
<g><rect x="64.0" y="176" width="2472.0" height="52" fill="rgb(10,16,32)"/><text x="84.6" y="220" class="term" style="fill:rgb(239,247,255)">[1&#160;ALL]&#160;&#160;&#160;2&#160;OVERVIEW&#160;&#160;&#160;3&#160;SIGNALS&#160;&#160;&#160;4&#160;CONTROL&#160;&#160;&#160;5&#160;THREE&#160;&#160;&#160;&#160;&#160;&#160;&#160;&#160;&#160;&#160;&#160;&#160;&#160;&#160;&#160;&#160;&#160;&#160;&#160;&#160;&#160;&#160;&#160;&#160;&#160;&#160;&#160;&#160;&#160;&#160;&#160;&#160;&#160;&#160;&#160;&#160;&#160;&#160;&#160;&#160;&#160;&#160;&#160;&#160;&#160;&#160;&#160;&#160;&#160;&#160;&#160;&#160;&#160;&#160;&#160;&#160;&#160;&#160;&#160;&#160;&#160;&#160;&#160;&#160;</text></g>
<g><rect x="64.0" y="228" width="2472.0" height="52" fill="rgb(10,16,32)"/><text x="84.6" y="272" class="term" style="fill:rgb(90,100,120)">WARN&#160;/&#160;WARNING&#160;STACK&#160;/&#160;ACEROLA&#160;WEBGPU&#160;READY&#160;/&#160;STYLE&#160;MIXED&#160;/&#160;B,G,M&#160;STYLE&#160;&#160;ARROWS&#160;MOVE&#160;&#160;ENTER&#160;MAX&#160;&#160;1-5&#160;FILTER&#160;&#160;Q&#160;EXIT&#160;&#160;&#160;</text></g>
<g><rect x="64.0" y="280" width="2472.0" height="52" fill="rgb(5,7,13)"/></g>
<g><rect x="64.0" y="332" width="20.6" height="52" fill="rgb(5,7,13)"/><rect x="84.6" y="332" width="782.8" height="52" fill="rgb(17,25,50)"/><rect x="867.4" y="332" width="20.6" height="52" fill="rgb(5,7,13)"/><rect x="1670.8" y="332" width="20.6" height="52" fill="rgb(5,7,13)"/><rect x="2515.4" y="332" width="20.6" height="52" fill="rgb(5,7,13)"/><text x="84.6" y="376" class="term" style="fill:rgb(239,247,255);font-weight:700">┌────────────────────────────────────┐</text><text x="888.0" y="376" class="term" style="fill:rgb(91,176,255)">╭────────────────────────────────────╮</text><text x="1691.4" y="376" class="term" style="fill:rgb(177,124,255)">╭──────────────────────────────────────╮</text></g>
<g><rect x="64.0" y="384" width="20.6" height="52" fill="rgb(5,7,13)"/><rect x="84.6" y="384" width="20.6" height="52" fill="rgb(17,25,50)"/><rect x="105.2" y="384" width="494.4" height="52" fill="rgb(255,159,36)"/><rect x="599.6" y="384" width="20.6" height="52" fill="rgb(17,25,50)"/><rect x="620.2" y="384" width="226.6" height="52" fill="rgb(255,159,36)"/><rect x="846.8" y="384" width="20.6" height="52" fill="rgb(17,25,50)"/><rect x="867.4" y="384" width="20.6" height="52" fill="rgb(5,7,13)"/><rect x="908.6" y="384" width="741.6" height="52" fill="rgb(91,176,255)"/><rect x="1670.8" y="384" width="20.6" height="52" fill="rgb(5,7,13)"/><rect x="1712.0" y="384" width="782.8" height="52" fill="rgb(177,124,255)"/><rect x="2515.4" y="384" width="20.6" height="52" fill="rgb(5,7,13)"/><text x="84.6" y="428" class="term" style="fill:rgb(239,247,255);font-weight:700">│</text><text x="105.2" y="428" class="term" style="fill:rgb(5,7,13);font-weight:700">&#160;ALERT-000&#160;/&#160;WARNING&#160;STA</text><text x="620.2" y="428" class="term" style="fill:rgb(5,7,13);font-weight:700">SURGE&#160;FRONT</text><text x="846.8" y="428" class="term" style="fill:rgb(239,247,255);font-weight:700">│</text><text x="888.0" y="428" class="term" style="fill:rgb(91,176,255)">│</text><text x="908.6" y="428" class="term" style="fill:rgb(5,7,13);font-weight:700">&#160;TIME-SEG&#160;/&#160;COUNTER&#160;AND&#160;CLOCK&#160;BOARDS</text><text x="1650.2" y="428" class="term" style="fill:rgb(91,176,255)">│</text><text x="1691.4" y="428" class="term" style="fill:rgb(177,124,255)">│</text><text x="1712.0" y="428" class="term" style="fill:rgb(239,247,255);font-weight:700">&#160;TEST-PLUG-02&#160;/&#160;PILOT&#160;STATE&#160;CARD&#160;&#160;&#160;&#160;&#160;&#160;</text><text x="2494.8" y="428" class="term" style="fill:rgb(177,124,255)">│</text></g>
<g><rect x="64.0" y="436" width="20.6" height="52" fill="rgb(5,7,13)"/><rect x="84.6" y="436" width="782.8" height="52" fill="rgb(17,25,50)"/><rect x="867.4" y="436" width="20.6" height="52" fill="rgb(5,7,13)"/><rect x="908.6" y="436" width="741.6" height="52" fill="rgb(10,16,32)"/><rect x="1670.8" y="436" width="20.6" height="52" fill="rgb(5,7,13)"/><rect x="1712.0" y="436" width="782.8" height="52" fill="rgb(10,16,32)"/><rect x="2515.4" y="436" width="20.6" height="52" fill="rgb(5,7,13)"/><text x="84.6" y="480" class="term" style="fill:rgb(239,247,255);font-weight:700">│</text><text x="105.2" y="480" class="term" style="fill:rgb(255,159,36)">WARN&#160;&#160;56%&#160;ALERT-000&#160;&#160;&#160;&#160;&#160;&#160;&#160;&#160;&#160;&#160;&#160;&#160;&#160;&#160;&#160;&#160;&#160;</text><text x="846.8" y="480" class="term" style="fill:rgb(239,247,255);font-weight:700">│</text><text x="888.0" y="480" class="term" style="fill:rgb(91,176,255)">│</text><text x="908.6" y="480" class="term" style="fill:rgb(239,247,255)">CLOCK&#160;&#160;&#160;&#160;&#160;&#160;17:34:40&#160;&#160;&#160;&#160;&#160;&#160;&#160;&#160;&#160;&#160;&#160;&#160;&#160;&#160;&#160;&#160;&#160;</text><text x="1650.2" y="480" class="term" style="fill:rgb(91,176,255)">│</text><text x="1691.4" y="480" class="term" style="fill:rgb(177,124,255)">│</text><text x="1712.0" y="480" class="term" style="fill:rgb(239,247,255)">SIGNAL&#160;PROFILE&#160;&#160;&#160;&#160;&#160;&#160;&#160;&#160;&#160;&#160;&#160;&#160;&#160;&#160;&#160;&#160;&#160;&#160;&#160;&#160;&#160;&#160;&#160;&#160;</text><text x="2494.8" y="480" class="term" style="fill:rgb(177,124,255)">│</text></g>
<g><rect x="64.0" y="488" width="20.6" height="52" fill="rgb(5,7,13)"/><rect x="84.6" y="488" width="782.8" height="52" fill="rgb(17,25,50)"/><rect x="867.4" y="488" width="20.6" height="52" fill="rgb(5,7,13)"/><rect x="908.6" y="488" width="741.6" height="52" fill="rgb(10,16,32)"/><rect x="1670.8" y="488" width="20.6" height="52" fill="rgb(5,7,13)"/><rect x="1712.0" y="488" width="782.8" height="52" fill="rgb(10,16,32)"/><rect x="2515.4" y="488" width="20.6" height="52" fill="rgb(5,7,13)"/><text x="84.6" y="532" class="term" style="fill:rgb(239,247,255);font-weight:700">│</text><text x="105.2" y="532" class="term" style="fill:rgb(255,159,36)">HARMONIC&#160;&#160;43%&#160;ALERT-000&#160;&#160;&#160;&#160;&#160;&#160;&#160;&#160;&#160;&#160;&#160;&#160;&#160;</text><text x="846.8" y="532" class="term" style="fill:rgb(239,247,255);font-weight:700">│</text><text x="888.0" y="532" class="term" style="fill:rgb(91,176,255)">│</text><text x="908.6" y="532" class="term" style="fill:rgb(239,247,255)">COUNTDOWN&#160;&#160;06:08:92&#160;&#160;&#160;&#160;&#160;&#160;&#160;&#160;&#160;&#160;&#160;&#160;&#160;&#160;&#160;&#160;&#160;</text><text x="1650.2" y="532" class="term" style="fill:rgb(91,176,255)">│</text><text x="1691.4" y="532" class="term" style="fill:rgb(177,124,255)">│</text><text x="1712.0" y="532" class="term" style="fill:rgb(239,247,255)">PRIMARY&#160;&#160;&#160;PILOT&#160;&#160;&#160;&#160;&#160;&#160;&#160;&#160;&#160;&#160;&#160;&#160;&#160;&#160;&#160;&#160;&#160;&#160;&#160;&#160;&#160;&#160;&#160;</text><text x="2494.8" y="532" class="term" style="fill:rgb(177,124,255)">│</text></g>
<g><rect x="64.0" y="540" width="20.6" height="52" fill="rgb(5,7,13)"/><rect x="84.6" y="540" width="782.8" height="52" fill="rgb(17,25,50)"/><rect x="867.4" y="540" width="20.6" height="52" fill="rgb(5,7,13)"/><rect x="908.6" y="540" width="741.6" height="52" fill="rgb(10,16,32)"/><rect x="1670.8" y="540" width="20.6" height="52" fill="rgb(5,7,13)"/><rect x="1712.0" y="540" width="782.8" height="52" fill="rgb(10,16,32)"/><rect x="2515.4" y="540" width="20.6" height="52" fill="rgb(5,7,13)"/><text x="84.6" y="584" class="term" style="fill:rgb(239,247,255);font-weight:700">│</text><text x="105.2" y="584" class="term" style="fill:rgb(255,159,36)">NOISE&#160;&#160;92%&#160;ALERT-000&#160;&#160;&#160;&#160;&#160;&#160;&#160;&#160;&#160;&#160;&#160;&#160;&#160;&#160;&#160;&#160;</text><text x="846.8" y="584" class="term" style="fill:rgb(239,247,255);font-weight:700">│</text><text x="888.0" y="584" class="term" style="fill:rgb(91,176,255)">│</text><text x="908.6" y="584" class="term" style="fill:rgb(239,247,255)">SEQUENCE&#160;&#160;&#160;000064&#160;&#160;&#160;&#160;&#160;&#160;&#160;&#160;&#160;&#160;&#160;&#160;&#160;&#160;&#160;&#160;&#160;&#160;&#160;</text><text x="1650.2" y="584" class="term" style="fill:rgb(91,176,255)">│</text><text x="1691.4" y="584" class="term" style="fill:rgb(177,124,255)">│</text><text x="1712.0" y="584" class="term" style="fill:rgb(239,247,255)">SECONDARY&#160;HARMONIC&#160;&#160;&#160;&#160;&#160;&#160;&#160;&#160;&#160;&#160;&#160;&#160;&#160;&#160;&#160;&#160;&#160;&#160;&#160;&#160;</text><text x="2494.8" y="584" class="term" style="fill:rgb(177,124,255)">│</text></g>
<g><rect x="64.0" y="592" width="20.6" height="52" fill="rgb(5,7,13)"/><rect x="84.6" y="592" width="782.8" height="52" fill="rgb(17,25,50)"/><rect x="867.4" y="592" width="20.6" height="52" fill="rgb(5,7,13)"/><rect x="908.6" y="592" width="741.6" height="52" fill="rgb(10,16,32)"/><rect x="1670.8" y="592" width="20.6" height="52" fill="rgb(5,7,13)"/><rect x="1712.0" y="592" width="782.8" height="52" fill="rgb(10,16,32)"/><rect x="2515.4" y="592" width="20.6" height="52" fill="rgb(5,7,13)"/><text x="84.6" y="636" class="term" style="fill:rgb(239,247,255);font-weight:700">│</text><text x="105.2" y="636" class="term" style="fill:rgb(255,159,36)">VECTOR&#160;DRIVE&#160;69%&#160;&#160;&#160;&#160;&#160;&#160;&#160;&#160;&#160;&#160;&#160;&#160;&#160;&#160;&#160;&#160;&#160;&#160;&#160;&#160;</text><text x="846.8" y="636" class="term" style="fill:rgb(239,247,255);font-weight:700">│</text><text x="888.0" y="636" class="term" style="fill:rgb(91,176,255)">│</text><text x="908.6" y="636" class="term" style="fill:rgb(239,247,255)">PRIMARY&#160;&#160;&#160;&#160;TIME&#160;&#160;&#160;&#160;&#160;&#160;&#160;&#160;&#160;&#160;&#160;&#160;&#160;&#160;&#160;&#160;&#160;&#160;&#160;&#160;&#160;</text><text x="1650.2" y="636" class="term" style="fill:rgb(91,176,255)">│</text><text x="1691.4" y="636" class="term" style="fill:rgb(177,124,255)">│</text><text x="1712.0" y="636" class="term" style="fill:rgb(239,247,255)">SYNC&#160;&#160;&#160;&#160;&#160;&#160;&#160;44%&#160;&#160;&#160;&#160;&#160;&#160;&#160;&#160;&#160;&#160;&#160;&#160;&#160;&#160;&#160;&#160;&#160;&#160;&#160;&#160;&#160;&#160;&#160;&#160;</text><text x="2494.8" y="636" class="term" style="fill:rgb(177,124,255)">│</text></g>
<g><rect x="64.0" y="644" width="20.6" height="52" fill="rgb(5,7,13)"/><rect x="84.6" y="644" width="782.8" height="52" fill="rgb(17,25,50)"/><rect x="867.4" y="644" width="20.6" height="52" fill="rgb(5,7,13)"/><rect x="908.6" y="644" width="741.6" height="52" fill="rgb(10,16,32)"/><rect x="1670.8" y="644" width="20.6" height="52" fill="rgb(5,7,13)"/><rect x="1712.0" y="644" width="782.8" height="52" fill="rgb(10,16,32)"/><rect x="2515.4" y="644" width="20.6" height="52" fill="rgb(5,7,13)"/><text x="84.6" y="688" class="term" style="fill:rgb(239,247,255);font-weight:700">│</text><text x="846.8" y="688" class="term" style="fill:rgb(239,247,255);font-weight:700">│</text><text x="888.0" y="688" class="term" style="fill:rgb(91,176,255)">│</text><text x="908.6" y="688" class="term" style="fill:rgb(239,247,255)">AMPLITUDE&#160;&#160;&#160;53.8%&#160;&#160;&#160;&#160;&#160;&#160;&#160;&#160;&#160;&#160;&#160;&#160;&#160;&#160;&#160;&#160;&#160;&#160;&#160;</text><text x="1650.2" y="688" class="term" style="fill:rgb(91,176,255)">│</text><text x="1691.4" y="688" class="term" style="fill:rgb(177,124,255)">│</text><text x="1712.0" y="688" class="term" style="fill:rgb(239,247,255)">DELTA&#160;&#160;&#160;&#160;&#160;&#160;58%&#160;&#160;&#160;&#160;&#160;&#160;&#160;&#160;&#160;&#160;&#160;&#160;&#160;&#160;&#160;&#160;&#160;&#160;&#160;&#160;&#160;&#160;&#160;&#160;</text><text x="2494.8" y="688" class="term" style="fill:rgb(177,124,255)">│</text></g>
<g><rect x="64.0" y="696" width="20.6" height="52" fill="rgb(5,7,13)"/><rect x="84.6" y="696" width="782.8" height="52" fill="rgb(17,25,50)"/><rect x="867.4" y="696" width="20.6" height="52" fill="rgb(5,7,13)"/><rect x="908.6" y="696" width="741.6" height="52" fill="rgb(10,16,32)"/><rect x="1670.8" y="696" width="20.6" height="52" fill="rgb(5,7,13)"/><rect x="1712.0" y="696" width="782.8" height="52" fill="rgb(10,16,32)"/><rect x="2515.4" y="696" width="20.6" height="52" fill="rgb(5,7,13)"/><text x="84.6" y="740" class="term" style="fill:rgb(239,247,255);font-weight:700">│</text><text x="846.8" y="740" class="term" style="fill:rgb(239,247,255);font-weight:700">│</text><text x="888.0" y="740" class="term" style="fill:rgb(91,176,255)">│</text><text x="908.6" y="740" class="term" style="fill:rgb(239,247,255)">VELOCITY&#160;&#160;&#160;&#160;27.5%&#160;&#160;&#160;&#160;&#160;&#160;&#160;&#160;&#160;&#160;&#160;&#160;&#160;&#160;&#160;&#160;&#160;&#160;&#160;</text><text x="1650.2" y="740" class="term" style="fill:rgb(91,176,255)">│</text><text x="1691.4" y="740" class="term" style="fill:rgb(177,124,255)">│</text><text x="1712.0" y="740" class="term" style="fill:rgb(239,247,255)">STATUS&#160;&#160;&#160;&#160;STABLE&#160;&#160;&#160;&#160;&#160;&#160;&#160;&#160;&#160;&#160;&#160;&#160;&#160;&#160;&#160;&#160;&#160;&#160;&#160;&#160;&#160;&#160;</text><text x="2494.8" y="740" class="term" style="fill:rgb(177,124,255)">│</text></g>
<g><rect x="64.0" y="748" width="20.6" height="52" fill="rgb(5,7,13)"/><rect x="84.6" y="748" width="782.8" height="52" fill="rgb(17,25,50)"/><rect x="867.4" y="748" width="20.6" height="52" fill="rgb(5,7,13)"/><rect x="908.6" y="748" width="741.6" height="52" fill="rgb(10,16,32)"/><rect x="1670.8" y="748" width="20.6" height="52" fill="rgb(5,7,13)"/><rect x="1712.0" y="748" width="782.8" height="52" fill="rgb(10,16,32)"/><rect x="2515.4" y="748" width="20.6" height="52" fill="rgb(5,7,13)"/><text x="84.6" y="792" class="term" style="fill:rgb(239,247,255);font-weight:700">│</text><text x="846.8" y="792" class="term" style="fill:rgb(239,247,255);font-weight:700">│</text><text x="888.0" y="792" class="term" style="fill:rgb(91,176,255)">│</text><text x="908.6" y="792" class="term" style="fill:rgb(239,247,255)">VECTOR&#160;&#160;&#160;&#160;&#160;TIME&#160;/&#160;HARMONIC&#160;/&#160;NOISE&#160;&#160;</text><text x="1650.2" y="792" class="term" style="fill:rgb(91,176,255)">│</text><text x="1691.4" y="792" class="term" style="fill:rgb(177,124,255)">│</text><text x="1712.0" y="792" class="term" style="fill:rgb(239,247,255)">BIND&#160;&#160;&#160;&#160;&#160;&#160;CPU&#160;&#160;&#160;&#160;&#160;&#160;&#160;&#160;&#160;&#160;&#160;&#160;&#160;&#160;&#160;&#160;&#160;&#160;&#160;&#160;&#160;&#160;&#160;&#160;&#160;</text><text x="2494.8" y="792" class="term" style="fill:rgb(177,124,255)">│</text></g>
<g><rect x="64.0" y="800" width="20.6" height="52" fill="rgb(5,7,13)"/><rect x="84.6" y="800" width="782.8" height="52" fill="rgb(17,25,50)"/><rect x="867.4" y="800" width="20.6" height="52" fill="rgb(5,7,13)"/><rect x="908.6" y="800" width="741.6" height="52" fill="rgb(10,16,32)"/><rect x="1670.8" y="800" width="20.6" height="52" fill="rgb(5,7,13)"/><rect x="1712.0" y="800" width="782.8" height="52" fill="rgb(10,16,32)"/><rect x="2515.4" y="800" width="20.6" height="52" fill="rgb(5,7,13)"/><text x="84.6" y="844" class="term" style="fill:rgb(239,247,255);font-weight:700">│</text><text x="846.8" y="844" class="term" style="fill:rgb(239,247,255);font-weight:700">│</text><text x="888.0" y="844" class="term" style="fill:rgb(91,176,255)">│</text><text x="1650.2" y="844" class="term" style="fill:rgb(91,176,255)">│</text><text x="1691.4" y="844" class="term" style="fill:rgb(177,124,255)">│</text><text x="2494.8" y="844" class="term" style="fill:rgb(177,124,255)">│</text></g>
<g><rect x="64.0" y="852" width="20.6" height="52" fill="rgb(5,7,13)"/><rect x="84.6" y="852" width="782.8" height="52" fill="rgb(17,25,50)"/><rect x="867.4" y="852" width="20.6" height="52" fill="rgb(5,7,13)"/><rect x="908.6" y="852" width="741.6" height="52" fill="rgb(10,16,32)"/><rect x="1670.8" y="852" width="20.6" height="52" fill="rgb(5,7,13)"/><rect x="1712.0" y="852" width="782.8" height="52" fill="rgb(10,16,32)"/><rect x="2515.4" y="852" width="20.6" height="52" fill="rgb(5,7,13)"/><text x="84.6" y="896" class="term" style="fill:rgb(239,247,255);font-weight:700">│</text><text x="846.8" y="896" class="term" style="fill:rgb(239,247,255);font-weight:700">│</text><text x="888.0" y="896" class="term" style="fill:rgb(91,176,255)">│</text><text x="1650.2" y="896" class="term" style="fill:rgb(91,176,255)">│</text><text x="1691.4" y="896" class="term" style="fill:rgb(177,124,255)">│</text><text x="2494.8" y="896" class="term" style="fill:rgb(177,124,255)">│</text></g>
<g><rect x="64.0" y="904" width="20.6" height="52" fill="rgb(5,7,13)"/><rect x="84.6" y="904" width="782.8" height="52" fill="rgb(17,25,50)"/><rect x="867.4" y="904" width="20.6" height="52" fill="rgb(5,7,13)"/><rect x="908.6" y="904" width="741.6" height="52" fill="rgb(10,16,32)"/><rect x="1670.8" y="904" width="20.6" height="52" fill="rgb(5,7,13)"/><rect x="1712.0" y="904" width="782.8" height="52" fill="rgb(10,16,32)"/><rect x="2515.4" y="904" width="20.6" height="52" fill="rgb(5,7,13)"/><text x="84.6" y="948" class="term" style="fill:rgb(239,247,255);font-weight:700">│</text><text x="846.8" y="948" class="term" style="fill:rgb(239,247,255);font-weight:700">│</text><text x="888.0" y="948" class="term" style="fill:rgb(91,176,255)">│</text><text x="1650.2" y="948" class="term" style="fill:rgb(91,176,255)">│</text><text x="1691.4" y="948" class="term" style="fill:rgb(177,124,255)">│</text><text x="2494.8" y="948" class="term" style="fill:rgb(177,124,255)">│</text></g>
<g><rect x="64.0" y="956" width="20.6" height="52" fill="rgb(5,7,13)"/><rect x="84.6" y="956" width="782.8" height="52" fill="rgb(17,25,50)"/><rect x="867.4" y="956" width="20.6" height="52" fill="rgb(5,7,13)"/><rect x="908.6" y="956" width="741.6" height="52" fill="rgb(10,16,32)"/><rect x="1670.8" y="956" width="20.6" height="52" fill="rgb(5,7,13)"/><rect x="1712.0" y="956" width="782.8" height="52" fill="rgb(10,16,32)"/><rect x="2515.4" y="956" width="20.6" height="52" fill="rgb(5,7,13)"/><text x="84.6" y="1000" class="term" style="fill:rgb(239,247,255);font-weight:700">│</text><text x="105.2" y="1000" class="term" style="fill:rgb(255,159,36)">SRC&#160;WARN&#160;+&#160;HARMONIC&#160;+&#160;NOISE&#160;&#160;&#160;&#160;&#160;&#160;&#160;&#160;&#160;</text><text x="846.8" y="1000" class="term" style="fill:rgb(239,247,255);font-weight:700">│</text><text x="888.0" y="1000" class="term" style="fill:rgb(91,176,255)">│</text><text x="908.6" y="1000" class="term" style="fill:rgb(90,100,120)">SRC&#160;TIME&#160;+&#160;HARMONIC&#160;+&#160;NOISE&#160;&#160;&#160;&#160;&#160;&#160;&#160;&#160;&#160;</text><text x="1650.2" y="1000" class="term" style="fill:rgb(91,176,255)">│</text><text x="1691.4" y="1000" class="term" style="fill:rgb(177,124,255)">│</text><text x="1712.0" y="1000" class="term" style="fill:rgb(90,100,120)">SRC&#160;PILOT&#160;+&#160;HARMONIC&#160;+&#160;NOISE&#160;&#160;&#160;&#160;&#160;&#160;&#160;&#160;&#160;&#160;</text><text x="2494.8" y="1000" class="term" style="fill:rgb(177,124,255)">│</text></g>
<g><rect x="64.0" y="1008" width="20.6" height="52" fill="rgb(5,7,13)"/><rect x="84.6" y="1008" width="782.8" height="52" fill="rgb(17,25,50)"/><rect x="867.4" y="1008" width="20.6" height="52" fill="rgb(5,7,13)"/><rect x="1670.8" y="1008" width="20.6" height="52" fill="rgb(5,7,13)"/><rect x="2515.4" y="1008" width="20.6" height="52" fill="rgb(5,7,13)"/><text x="84.6" y="1052" class="term" style="fill:rgb(239,247,255);font-weight:700">└────────────────────────────────────┘</text><text x="888.0" y="1052" class="term" style="fill:rgb(91,176,255)">╰────────────────────────────────────╯</text><text x="1691.4" y="1052" class="term" style="fill:rgb(177,124,255)">╰──────────────────────────────────────╯</text></g>
<g><rect x="64.0" y="1060" width="2472.0" height="52" fill="rgb(5,7,13)"/></g>
<g><rect x="64.0" y="1112" width="20.6" height="52" fill="rgb(5,7,13)"/><rect x="867.4" y="1112" width="20.6" height="52" fill="rgb(5,7,13)"/><rect x="1670.8" y="1112" width="20.6" height="52" fill="rgb(5,7,13)"/><rect x="2515.4" y="1112" width="20.6" height="52" fill="rgb(5,7,13)"/><text x="84.6" y="1156" class="term" style="fill:rgb(255,66,49)">╭────────────────────────────────────╮</text><text x="888.0" y="1156" class="term" style="fill:rgb(91,176,255)">╭────────────────────────────────────╮</text><text x="1691.4" y="1156" class="term" style="fill:rgb(125,255,186)">╭──────────────────────────────────────╮</text></g>
<g><rect x="64.0" y="1164" width="20.6" height="52" fill="rgb(5,7,13)"/><rect x="105.2" y="1164" width="741.6" height="52" fill="rgb(255,66,49)"/><rect x="867.4" y="1164" width="20.6" height="52" fill="rgb(5,7,13)"/><rect x="908.6" y="1164" width="494.4" height="52" fill="rgb(91,176,255)"/><rect x="1403.0" y="1164" width="20.6" height="52" fill="rgb(10,16,32)"/><rect x="1423.6" y="1164" width="226.6" height="52" fill="rgb(91,176,255)"/><rect x="1670.8" y="1164" width="20.6" height="52" fill="rgb(5,7,13)"/><rect x="1712.0" y="1164" width="782.8" height="52" fill="rgb(125,255,186)"/><rect x="2515.4" y="1164" width="20.6" height="52" fill="rgb(5,7,13)"/><text x="84.6" y="1208" class="term" style="fill:rgb(255,66,49)">│</text><text x="105.2" y="1208" class="term" style="fill:rgb(239,247,255);font-weight:700">&#160;LIVE-07&#160;/&#160;LIVE&#160;FEED&#160;/&#160;CORRUPTION&#160;&#160;&#160;</text><text x="846.8" y="1208" class="term" style="fill:rgb(255,66,49)">│</text><text x="888.0" y="1208" class="term" style="fill:rgb(91,176,255)">│</text><text x="908.6" y="1208" class="term" style="fill:rgb(5,7,13);font-weight:700">&#160;LOG-223.229&#160;/&#160;EVENT&#160;LOG</text><text x="1423.6" y="1208" class="term" style="fill:rgb(5,7,13);font-weight:700">SURGE&#160;FRONT</text><text x="1650.2" y="1208" class="term" style="fill:rgb(91,176,255)">│</text><text x="1691.4" y="1208" class="term" style="fill:rgb(125,255,186)">│</text><text x="1712.0" y="1208" class="term" style="fill:rgb(5,7,13);font-weight:700">&#160;MATRIX-C&#160;/&#160;CHANNEL&#160;MATRIX&#160;&#160;&#160;&#160;&#160;&#160;&#160;&#160;&#160;&#160;&#160;&#160;</text><text x="2494.8" y="1208" class="term" style="fill:rgb(125,255,186)">│</text></g>
<g><rect x="64.0" y="1216" width="20.6" height="52" fill="rgb(5,7,13)"/><rect x="105.2" y="1216" width="741.6" height="52" fill="rgb(10,16,32)"/><rect x="867.4" y="1216" width="20.6" height="52" fill="rgb(5,7,13)"/><rect x="908.6" y="1216" width="741.6" height="52" fill="rgb(10,16,32)"/><rect x="1670.8" y="1216" width="20.6" height="52" fill="rgb(5,7,13)"/><rect x="1712.0" y="1216" width="782.8" height="52" fill="rgb(10,16,32)"/><rect x="2515.4" y="1216" width="20.6" height="52" fill="rgb(5,7,13)"/><text x="84.6" y="1260" class="term" style="fill:rgb(255,66,49)">│</text><text x="105.2" y="1260" class="term" style="fill:rgb(255,159,36)">&#160;░▒▒▓▓▓▓▓▓▒░&#160;&#160;&#160;&#160;&#160;&#160;&#160;░▒▒▓▓▓▓▓▒░&#160;&#160;&#160;&#160;&#160;&#160;&#160;</text><text x="846.8" y="1260" class="term" style="fill:rgb(255,66,49)">│</text><text x="888.0" y="1260" class="term" style="fill:rgb(91,176,255)">│</text><text x="908.6" y="1260" class="term" style="fill:rgb(239,247,255)">223500&#160;&#160;LOG&#160;21%&#160;LOG-223.229&#160;&#160;&#160;&#160;&#160;&#160;&#160;&#160;&#160;</text><text x="1650.2" y="1260" class="term" style="fill:rgb(91,176,255)">│</text><text x="1691.4" y="1260" class="term" style="fill:rgb(125,255,186)">│</text><text x="1712.0" y="1260" class="term" style="fill:rgb(239,247,255)">&#160;&#160;·&#160;&#160;&#160;&#160;&#160;&#160;·&#160;│&#160;&#160;&#160;&#160;·&#160;&#160;&#160;&#160;&#160;&#160;│&#160;&#160;&#160;&#160;&#160;&#160;·&#160;&#160;&#160;&#160;│&#160;&#160;</text><text x="2494.8" y="1260" class="term" style="fill:rgb(125,255,186)">│</text></g>
<g><rect x="64.0" y="1268" width="20.6" height="52" fill="rgb(5,7,13)"/><rect x="105.2" y="1268" width="741.6" height="52" fill="rgb(10,16,32)"/><rect x="867.4" y="1268" width="20.6" height="52" fill="rgb(5,7,13)"/><rect x="908.6" y="1268" width="741.6" height="52" fill="rgb(10,16,32)"/><rect x="1670.8" y="1268" width="20.6" height="52" fill="rgb(5,7,13)"/><rect x="1712.0" y="1268" width="782.8" height="52" fill="rgb(10,16,32)"/><rect x="2515.4" y="1268" width="20.6" height="52" fill="rgb(5,7,13)"/><text x="84.6" y="1312" class="term" style="fill:rgb(255,66,49)">│</text><text x="105.2" y="1312" class="term" style="fill:rgb(255,159,36)">▒▒▓▓█████│───────────│█████▓▓▒▒░&#160;&#160;&#160;░</text><text x="846.8" y="1312" class="term" style="fill:rgb(255,66,49)">│</text><text x="888.0" y="1312" class="term" style="fill:rgb(91,176,255)">│</text><text x="908.6" y="1312" class="term" style="fill:rgb(239,247,255)">223531&#160;&#160;HARMONIC&#160;49%&#160;LOG-223.229&#160;&#160;&#160;&#160;</text><text x="1650.2" y="1312" class="term" style="fill:rgb(91,176,255)">│</text><text x="1691.4" y="1312" class="term" style="fill:rgb(125,255,186)">│</text><text x="1712.0" y="1312" class="term" style="fill:rgb(239,247,255)">▓·&#160;&#160;&#160;&#160;&#160;&#160;·&#160;&#160;│▓&#160;&#160;·&#160;&#160;&#160;&#160;&#160;&#160;·│&#160;&#160;&#160;&#160;&#160;·&#160;&#160;&#160;&#160;&#160;│&#160;&#160;</text><text x="2494.8" y="1312" class="term" style="fill:rgb(125,255,186)">│</text></g>
<g><rect x="64.0" y="1320" width="20.6" height="52" fill="rgb(5,7,13)"/><rect x="105.2" y="1320" width="741.6" height="52" fill="rgb(10,16,32)"/><rect x="867.4" y="1320" width="20.6" height="52" fill="rgb(5,7,13)"/><rect x="908.6" y="1320" width="741.6" height="52" fill="rgb(10,16,32)"/><rect x="1670.8" y="1320" width="20.6" height="52" fill="rgb(5,7,13)"/><rect x="1712.0" y="1320" width="782.8" height="52" fill="rgb(10,16,32)"/><rect x="2515.4" y="1320" width="20.6" height="52" fill="rgb(5,7,13)"/><text x="84.6" y="1364" class="term" style="fill:rgb(255,66,49)">│</text><text x="105.2" y="1364" class="term" style="fill:rgb(255,159,36)">▒▓▓██████│█▓▒▒░░░▒▒▓█│███████▓▒▒░░▒▒</text><text x="846.8" y="1364" class="term" style="fill:rgb(255,66,49)">│</text><text x="888.0" y="1364" class="term" style="fill:rgb(91,176,255)">│</text><text x="908.6" y="1364" class="term" style="fill:rgb(239,247,255)">223562&#160;&#160;NOISE&#160;87%&#160;LOG-223.229&#160;&#160;&#160;&#160;&#160;&#160;&#160;</text><text x="1650.2" y="1364" class="term" style="fill:rgb(91,176,255)">│</text><text x="1691.4" y="1364" class="term" style="fill:rgb(125,255,186)">│</text><text x="1712.0" y="1364" class="term" style="fill:rgb(239,247,255)">▓&#160;&#160;&#160;&#160;&#160;&#160;·&#160;&#160;&#160;│▓&#160;·&#160;&#160;&#160;&#160;&#160;&#160;·&#160;│&#160;&#160;&#160;&#160;·&#160;&#160;&#160;▓▓&#160;│&#160;&#160;</text><text x="2494.8" y="1364" class="term" style="fill:rgb(125,255,186)">│</text></g>
<g><rect x="64.0" y="1372" width="20.6" height="52" fill="rgb(5,7,13)"/><rect x="105.2" y="1372" width="741.6" height="52" fill="rgb(10,16,32)"/><rect x="867.4" y="1372" width="20.6" height="52" fill="rgb(5,7,13)"/><rect x="908.6" y="1372" width="741.6" height="52" fill="rgb(10,16,32)"/><rect x="1670.8" y="1372" width="20.6" height="52" fill="rgb(5,7,13)"/><rect x="1712.0" y="1372" width="782.8" height="52" fill="rgb(10,16,32)"/><rect x="2515.4" y="1372" width="20.6" height="52" fill="rgb(5,7,13)"/><text x="84.6" y="1416" class="term" style="fill:rgb(255,66,49)">│</text><text x="105.2" y="1416" class="term" style="fill:rgb(255,159,36)">▒▓▓██████│█▓▒▒░░░▒▒▓█│███████▓▓▒░░░▒</text><text x="846.8" y="1416" class="term" style="fill:rgb(255,66,49)">│</text><text x="888.0" y="1416" class="term" style="fill:rgb(91,176,255)">│</text><text x="908.6" y="1416" class="term" style="fill:rgb(239,247,255)">224160&#160;&#160;VECTOR&#160;DRIVE&#160;59%&#160;&#160;&#160;&#160;&#160;&#160;&#160;&#160;&#160;&#160;&#160;&#160;</text><text x="1650.2" y="1416" class="term" style="fill:rgb(91,176,255)">│</text><text x="1691.4" y="1416" class="term" style="fill:rgb(125,255,186)">│</text><text x="1712.0" y="1416" class="term" style="fill:rgb(239,247,255)">▓▓&#160;&#160;&#160;&#160;·&#160;&#160;&#160;&#160;│▓·&#160;&#160;&#160;&#160;&#160;&#160;·&#160;&#160;│&#160;&#160;&#160;·&#160;&#160;&#160;&#160;▓▓·│&#160;&#160;</text><text x="2494.8" y="1416" class="term" style="fill:rgb(125,255,186)">│</text></g>
<g><rect x="64.0" y="1424" width="20.6" height="52" fill="rgb(5,7,13)"/><rect x="105.2" y="1424" width="741.6" height="52" fill="rgb(10,16,32)"/><rect x="867.4" y="1424" width="20.6" height="52" fill="rgb(5,7,13)"/><rect x="908.6" y="1424" width="741.6" height="52" fill="rgb(10,16,32)"/><rect x="1670.8" y="1424" width="20.6" height="52" fill="rgb(5,7,13)"/><rect x="1712.0" y="1424" width="782.8" height="52" fill="rgb(10,16,32)"/><rect x="2515.4" y="1424" width="20.6" height="52" fill="rgb(5,7,13)"/><text x="84.6" y="1468" class="term" style="fill:rgb(255,66,49)">│</text><text x="105.2" y="1468" class="term" style="fill:rgb(255,159,36)">░▒▓▓█████│▓▒▒░&#160;&#160;&#160;░░▒▓│██████▓▒▒░&#160;&#160;&#160;░</text><text x="846.8" y="1468" class="term" style="fill:rgb(255,66,49)">│</text><text x="888.0" y="1468" class="term" style="fill:rgb(91,176,255)">│</text><text x="908.6" y="1468" class="term" style="fill:rgb(239,247,255)">224328&#160;&#160;PHASE&#160;SLEW&#160;23%&#160;&#160;&#160;&#160;&#160;&#160;&#160;&#160;&#160;&#160;&#160;&#160;&#160;&#160;</text><text x="1650.2" y="1468" class="term" style="fill:rgb(91,176,255)">│</text><text x="1691.4" y="1468" class="term" style="fill:rgb(125,255,186)">│</text><text x="1712.0" y="1468" class="term" style="fill:rgb(239,247,255)">▓▓&#160;&#160;&#160;·&#160;&#160;&#160;&#160;&#160;│▓&#160;&#160;&#160;&#160;&#160;▓·&#160;&#160;&#160;│&#160;&#160;·▒&#160;&#160;&#160;&#160;▓▓&#160;│&#160;&#160;</text><text x="2494.8" y="1468" class="term" style="fill:rgb(125,255,186)">│</text></g>
<g><rect x="64.0" y="1476" width="20.6" height="52" fill="rgb(5,7,13)"/><rect x="105.2" y="1476" width="741.6" height="52" fill="rgb(10,16,32)"/><rect x="867.4" y="1476" width="20.6" height="52" fill="rgb(5,7,13)"/><rect x="908.6" y="1476" width="741.6" height="52" fill="rgb(10,16,32)"/><rect x="1670.8" y="1476" width="20.6" height="52" fill="rgb(5,7,13)"/><rect x="1712.0" y="1476" width="782.8" height="52" fill="rgb(10,16,32)"/><rect x="2515.4" y="1476" width="20.6" height="52" fill="rgb(5,7,13)"/><text x="84.6" y="1520" class="term" style="fill:rgb(255,66,49)">│</text><text x="105.2" y="1520" class="term" style="fill:rgb(255,159,36)">&#160;░░▒▓▓▓▓▓│▒░&#160;&#160;&#160;&#160;&#160;&#160;&#160;░▒│▓▓▓▓▓▓▒░&#160;&#160;&#160;&#160;&#160;&#160;</text><text x="846.8" y="1520" class="term" style="fill:rgb(255,66,49)">│</text><text x="888.0" y="1520" class="term" style="fill:rgb(91,176,255)">│</text><text x="1650.2" y="1520" class="term" style="fill:rgb(91,176,255)">│</text><text x="1691.4" y="1520" class="term" style="fill:rgb(125,255,186)">│</text><text x="1712.0" y="1520" class="term" style="fill:rgb(239,247,255)">▓▓&#160;&#160;·&#160;&#160;▒▒▒&#160;│▓▒&#160;&#160;&#160;▒▓&#160;&#160;&#160;&#160;│&#160;·&#160;▒&#160;&#160;&#160;&#160;▓▓&#160;│&#160;&#160;</text><text x="2494.8" y="1520" class="term" style="fill:rgb(125,255,186)">│</text></g>
<g><rect x="64.0" y="1528" width="20.6" height="52" fill="rgb(5,7,13)"/><rect x="105.2" y="1528" width="741.6" height="52" fill="rgb(10,16,32)"/><rect x="867.4" y="1528" width="20.6" height="52" fill="rgb(5,7,13)"/><rect x="908.6" y="1528" width="741.6" height="52" fill="rgb(10,16,32)"/><rect x="1670.8" y="1528" width="20.6" height="52" fill="rgb(5,7,13)"/><rect x="1712.0" y="1528" width="782.8" height="52" fill="rgb(10,16,32)"/><rect x="2515.4" y="1528" width="20.6" height="52" fill="rgb(5,7,13)"/><text x="84.6" y="1572" class="term" style="fill:rgb(255,66,49)">│</text><text x="105.2" y="1572" class="term" style="fill:rgb(255,159,36)">&#160;&#160;&#160;░░▒▒▒▒│───────────│▒▒▒▒▒░&#160;&#160;&#160;&#160;&#160;&#160;&#160;&#160;</text><text x="846.8" y="1572" class="term" style="fill:rgb(255,66,49)">│</text><text x="888.0" y="1572" class="term" style="fill:rgb(91,176,255)">│</text><text x="1650.2" y="1572" class="term" style="fill:rgb(91,176,255)">│</text><text x="1691.4" y="1572" class="term" style="fill:rgb(125,255,186)">│</text><text x="1712.0" y="1572" class="term" style="fill:rgb(239,247,255)">▓▓▒·&#160;&#160;&#160;▒▒▒·│▓▒&#160;&#160;&#160;▒▓▒&#160;&#160;&#160;│·&#160;&#160;▒▒&#160;&#160;▒▓▓▒│&#160;&#160;</text><text x="2494.8" y="1572" class="term" style="fill:rgb(125,255,186)">│</text></g>
<g><rect x="64.0" y="1580" width="20.6" height="52" fill="rgb(5,7,13)"/><rect x="105.2" y="1580" width="741.6" height="52" fill="rgb(10,16,32)"/><rect x="867.4" y="1580" width="20.6" height="52" fill="rgb(5,7,13)"/><rect x="908.6" y="1580" width="741.6" height="52" fill="rgb(10,16,32)"/><rect x="1670.8" y="1580" width="20.6" height="52" fill="rgb(5,7,13)"/><rect x="1712.0" y="1580" width="782.8" height="52" fill="rgb(10,16,32)"/><rect x="2515.4" y="1580" width="20.6" height="52" fill="rgb(5,7,13)"/><text x="84.6" y="1624" class="term" style="fill:rgb(255,66,49)">│</text><text x="105.2" y="1624" class="term" style="fill:rgb(255,159,36)">&#160;&#160;&#160;&#160;░░░░░&#160;&#160;&#160;&#160;&#160;&#160;&#160;&#160;&#160;&#160;&#160;&#160;&#160;░░░░░&#160;&#160;&#160;&#160;&#160;&#160;&#160;&#160;&#160;</text><text x="846.8" y="1624" class="term" style="fill:rgb(255,66,49)">│</text><text x="888.0" y="1624" class="term" style="fill:rgb(91,176,255)">│</text><text x="1650.2" y="1624" class="term" style="fill:rgb(91,176,255)">│</text><text x="1691.4" y="1624" class="term" style="fill:rgb(125,255,186)">│</text><text x="1712.0" y="1624" class="term" style="fill:rgb(239,247,255)">▓▓▒&#160;&#160;&#160;&#160;▒▒▒▒│▓▒&#160;&#160;·▒▓▒&#160;&#160;&#160;│&#160;&#160;▒▒▒&#160;·▒▓▓▒│&#160;&#160;</text><text x="2494.8" y="1624" class="term" style="fill:rgb(125,255,186)">│</text></g>
<g><rect x="64.0" y="1632" width="20.6" height="52" fill="rgb(5,7,13)"/><rect x="105.2" y="1632" width="741.6" height="52" fill="rgb(10,16,32)"/><rect x="867.4" y="1632" width="20.6" height="52" fill="rgb(5,7,13)"/><rect x="908.6" y="1632" width="741.6" height="52" fill="rgb(10,16,32)"/><rect x="1670.8" y="1632" width="20.6" height="52" fill="rgb(5,7,13)"/><rect x="1712.0" y="1632" width="782.8" height="52" fill="rgb(10,16,32)"/><rect x="2515.4" y="1632" width="20.6" height="52" fill="rgb(5,7,13)"/><text x="84.6" y="1676" class="term" style="fill:rgb(255,66,49)">│</text><text x="105.2" y="1676" class="term" style="fill:rgb(255,159,36)">&#160;&#160;&#160;&#160;░░░░░&#160;&#160;&#160;&#160;&#160;&#160;&#160;&#160;&#160;&#160;&#160;&#160;&#160;░░░░░&#160;&#160;&#160;&#160;&#160;&#160;&#160;&#160;&#160;</text><text x="846.8" y="1676" class="term" style="fill:rgb(255,66,49)">│</text><text x="888.0" y="1676" class="term" style="fill:rgb(91,176,255)">│</text><text x="1650.2" y="1676" class="term" style="fill:rgb(91,176,255)">│</text><text x="1691.4" y="1676" class="term" style="fill:rgb(125,255,186)">│</text><text x="1712.0" y="1676" class="term" style="fill:rgb(239,247,255)">▓▓▒&#160;&#160;&#160;▒▒▒▒▒│▓▒▒·▒▒▓▒&#160;&#160;·│▒&#160;▒▒▒·&#160;▒▓▓▒│&#160;&#160;</text><text x="2494.8" y="1676" class="term" style="fill:rgb(125,255,186)">│</text></g>
<g><rect x="64.0" y="1684" width="20.6" height="52" fill="rgb(5,7,13)"/><rect x="105.2" y="1684" width="741.6" height="52" fill="rgb(10,16,32)"/><rect x="867.4" y="1684" width="20.6" height="52" fill="rgb(5,7,13)"/><rect x="908.6" y="1684" width="741.6" height="52" fill="rgb(10,16,32)"/><rect x="1670.8" y="1684" width="20.6" height="52" fill="rgb(5,7,13)"/><rect x="1712.0" y="1684" width="782.8" height="52" fill="rgb(10,16,32)"/><rect x="2515.4" y="1684" width="20.6" height="52" fill="rgb(5,7,13)"/><text x="84.6" y="1728" class="term" style="fill:rgb(255,66,49)">│</text><text x="105.2" y="1728" class="term" style="fill:rgb(255,159,36)">&#160;&#160;&#160;░▒▒▒▒▒░&#160;&#160;&#160;&#160;&#160;&#160;&#160;&#160;&#160;&#160;░░▒▒▒▒▒░&#160;&#160;&#160;&#160;&#160;&#160;&#160;&#160;</text><text x="846.8" y="1728" class="term" style="fill:rgb(255,66,49)">│</text><text x="888.0" y="1728" class="term" style="fill:rgb(91,176,255)">│</text><text x="1650.2" y="1728" class="term" style="fill:rgb(91,176,255)">│</text><text x="1691.4" y="1728" class="term" style="fill:rgb(125,255,186)">│</text><text x="1712.0" y="1728" class="term" style="fill:rgb(239,247,255)">▓▓▒▒&#160;&#160;▒▒▒▒▒│▓▒▒&#160;▒▒▓▒▒·▒│▒&#160;▒▒▒&#160;&#160;▒▓▓▒│&#160;&#160;</text><text x="2494.8" y="1728" class="term" style="fill:rgb(125,255,186)">│</text></g>
<g><rect x="64.0" y="1736" width="20.6" height="52" fill="rgb(5,7,13)"/><rect x="105.2" y="1736" width="741.6" height="52" fill="rgb(10,16,32)"/><rect x="867.4" y="1736" width="20.6" height="52" fill="rgb(5,7,13)"/><rect x="908.6" y="1736" width="741.6" height="52" fill="rgb(10,16,32)"/><rect x="1670.8" y="1736" width="20.6" height="52" fill="rgb(5,7,13)"/><rect x="1712.0" y="1736" width="782.8" height="52" fill="rgb(10,16,32)"/><rect x="2515.4" y="1736" width="20.6" height="52" fill="rgb(5,7,13)"/><text x="84.6" y="1780" class="term" style="fill:rgb(255,66,49)">│</text><text x="105.2" y="1780" class="term" style="fill:rgb(255,159,36)">&#160;░▒▒▓▓█▓▓▓▒░&#160;&#160;&#160;&#160;&#160;&#160;&#160;░▒▓▓▓█▓▓▒▒░&#160;&#160;&#160;&#160;&#160;&#160;</text><text x="846.8" y="1780" class="term" style="fill:rgb(255,66,49)">│</text><text x="888.0" y="1780" class="term" style="fill:rgb(91,176,255)">│</text><text x="1650.2" y="1780" class="term" style="fill:rgb(91,176,255)">│</text><text x="1691.4" y="1780" class="term" style="fill:rgb(125,255,186)">│</text><text x="1712.0" y="1780" class="term" style="fill:rgb(239,247,255)">▓▓▒▒▒▒▒▒▒▒▒│▓▒▒▒▒▒▓▒▒▒▒│▒▒▒▒▒▒▒▒▓▓▒│&#160;&#160;</text><text x="2494.8" y="1780" class="term" style="fill:rgb(125,255,186)">│</text></g>
<g><rect x="64.0" y="1788" width="20.6" height="52" fill="rgb(5,7,13)"/><rect x="105.2" y="1788" width="741.6" height="52" fill="rgb(10,16,32)"/><rect x="867.4" y="1788" width="20.6" height="52" fill="rgb(5,7,13)"/><rect x="908.6" y="1788" width="741.6" height="52" fill="rgb(10,16,32)"/><rect x="1670.8" y="1788" width="20.6" height="52" fill="rgb(5,7,13)"/><rect x="1712.0" y="1788" width="782.8" height="52" fill="rgb(10,16,32)"/><rect x="2515.4" y="1788" width="20.6" height="52" fill="rgb(5,7,13)"/><text x="84.6" y="1832" class="term" style="fill:rgb(255,66,49)">│</text><text x="105.2" y="1832" class="term" style="fill:rgb(90,100,120)">SRC&#160;LIVE&#160;+&#160;HARMONIC&#160;+&#160;NOISE&#160;&#160;&#160;&#160;&#160;&#160;&#160;&#160;&#160;</text><text x="846.8" y="1832" class="term" style="fill:rgb(255,66,49)">│</text><text x="888.0" y="1832" class="term" style="fill:rgb(91,176,255)">│</text><text x="908.6" y="1832" class="term" style="fill:rgb(90,100,120)">SRC&#160;LOG&#160;+&#160;HARMONIC&#160;+&#160;NOISE&#160;&#160;&#160;&#160;&#160;&#160;&#160;&#160;&#160;&#160;</text><text x="1650.2" y="1832" class="term" style="fill:rgb(91,176,255)">│</text><text x="1691.4" y="1832" class="term" style="fill:rgb(125,255,186)">│</text><text x="1712.0" y="1832" class="term" style="fill:rgb(90,100,120)">SRC&#160;MATRIX&#160;+&#160;HARMONIC&#160;+&#160;NOISE&#160;&#160;&#160;&#160;&#160;&#160;&#160;&#160;&#160;</text><text x="2494.8" y="1832" class="term" style="fill:rgb(125,255,186)">│</text></g>
<g><rect x="64.0" y="1840" width="20.6" height="52" fill="rgb(5,7,13)"/><rect x="867.4" y="1840" width="20.6" height="52" fill="rgb(5,7,13)"/><rect x="1670.8" y="1840" width="20.6" height="52" fill="rgb(5,7,13)"/><rect x="2515.4" y="1840" width="20.6" height="52" fill="rgb(5,7,13)"/><text x="84.6" y="1884" class="term" style="fill:rgb(255,66,49)">╰────────────────────────────────────╯</text><text x="888.0" y="1884" class="term" style="fill:rgb(91,176,255)">╰────────────────────────────────────╯</text><text x="1691.4" y="1884" class="term" style="fill:rgb(125,255,186)">╰──────────────────────────────────────╯</text></g>
<g><rect x="64.0" y="1892" width="2472.0" height="52" fill="rgb(5,7,13)"/></g>
<g><rect x="64.0" y="1944" width="2472.0" height="52" fill="rgb(10,16,32)"/><text x="84.6" y="1988" class="term" style="fill:rgb(90,100,120)">PAGE&#160;1/5&#160;&#160;SELECTED&#160;1/25&#160;&#160;GRID&#160;&#160;Typography&#160;as&#160;interrupt&#160;&#160;&#160;&#160;&#160;&#160;&#160;&#160;&#160;&#160;&#160;&#160;&#160;&#160;&#160;&#160;&#160;&#160;&#160;&#160;&#160;&#160;&#160;&#160;&#160;&#160;&#160;&#160;&#160;&#160;&#160;&#160;&#160;&#160;&#160;&#160;&#160;&#160;&#160;&#160;&#160;&#160;&#160;&#160;&#160;&#160;&#160;&#160;&#160;&#160;&#160;&#160;&#160;&#160;&#160;&#160;&#160;&#160;&#160;&#160;&#160;&#160;&#160;&#160;</text></g>
</svg>
