<svg xmlns="http://www.w3.org/2000/svg" width="2584" height="2046" viewBox="0 0 2584 2046" class="theme-system" role="img" aria-label="System Monitor terminal screenshot">
<style>
svg{background:#06080d}.frame{fill:#0d1117;stroke:var(--border);stroke-width:4}.title{fill:#f8fafc;font:700 46px ui-monospace,SFMono-Regular,Menlo,Consolas,monospace}.term{font:34px ui-monospace,SFMono-Regular,Menlo,Consolas,monospace;dominant-baseline:alphabetic}.bar{fill:#111827;stroke:#374151}.screen{fill:#090d14;opacity:.91}.glow{filter:drop-shadow(0 0 18px var(--glow))}.theme-neon{--border:#2dd4bf;--glow:#2dd4bf}.theme-exodus{--border:#a855f7;--glow:#ff4fd8}.theme-system{--border:#38bdf8;--glow:#38bdf8}.theme-gallery{--border:#818cf8;--glow:#818cf8}.theme-theme{--border:#ac7cc8;--glow:#f694d8}.theme-docs{--border:#64748b;--glow:#93c5fd}
</style>
<rect x="32" y="32" width="2520" height="1982" rx="24" class="frame glow"/>
<rect x="32" y="32" width="2520" height="78" rx="24" class="bar"/>
<text x="64" y="86" class="title">System Monitor</text>
<circle cx="2408" cy="72" r="12" fill="#a3e635"/>
<circle cx="2456" cy="72" r="12" fill="#facc15"/>
<circle cx="2504" cy="72" r="12" fill="#fb7185"/>
<rect x="52" y="110" width="2480" height="1884" rx="16" class="screen"/>
<g><rect x="64.0" y="124" width="2472.0" height="52" fill="rgb(255,66,49)"/><text x="64.0" y="168" class="term" style="fill:rgb(5,7,13);font-weight:700">MEMORY&#160;SATURATION&#160;/&#160;RAM&#160;USE&#160;AT&#160;93.5%&#160;&#160;&#160;&#160;&#160;&#160;&#160;&#160;&#160;&#160;&#160;&#160;&#160;&#160;&#160;&#160;&#160;&#160;&#160;&#160;&#160;&#160;&#160;&#160;&#160;&#160;&#160;&#160;&#160;&#160;&#160;&#160;&#160;&#160;&#160;&#160;&#160;&#160;&#160;&#160;&#160;&#160;&#160;&#160;&#160;&#160;&#160;&#160;&#160;&#160;&#160;&#160;&#160;&#160;&#160;&#160;&#160;&#160;&#160;&#160;&#160;&#160;&#160;&#160;&#160;&#160;&#160;&#160;&#160;&#160;&#160;&#160;&#160;&#160;&#160;&#160;&#160;&#160;&#160;&#160;&#160;&#160;&#160;&#160;</text></g>
<g><rect x="64.0" y="176" width="2472.0" height="52" fill="rgb(10,16,32)"/><text x="64.0" y="220" class="term" style="fill:rgb(239,247,255);font-weight:700">LAYOUT&#160;QUAD(MONITOR)&#160;&#160;/&#160;&#160;VIEW&#160;COMPACT&#160;&#160;/&#160;&#160;FOCUS&#160;CPU&#160;&#160;/&#160;&#160;VIS&#160;THREE-LATTICE&#160;&#160;/&#160;&#160;INPUTS&#160;2&#160;&#160;/&#160;&#160;CYCLE&#160;OFF&#160;&#160;&#160;&#160;&#160;&#160;&#160;&#160;&#160;&#160;&#160;&#160;&#160;&#160;&#160;&#160;&#160;&#160;&#160;&#160;</text></g>
<g><rect x="64.0" y="228" width="20.6" height="52" fill="rgb(5,7,13)"/><rect x="84.6" y="228" width="1194.8" height="52" fill="rgb(17,25,50)"/><rect x="1279.4" y="228" width="20.6" height="52" fill="rgb(5,7,13)"/><rect x="2515.4" y="228" width="20.6" height="52" fill="rgb(5,7,13)"/><text x="84.6" y="272" class="term" style="fill:rgb(239,247,255);font-weight:700">┌────────────────────────────────────────────────────────┐</text><text x="1300.0" y="272" class="term" style="fill:rgb(255,66,49);font-weight:700">┌─────────────────────────────────────────────────────────┐</text></g>
<g><rect x="64.0" y="280" width="20.6" height="52" fill="rgb(5,7,13)"/><rect x="84.6" y="280" width="20.6" height="52" fill="rgb(17,25,50)"/><rect x="105.2" y="280" width="865.2" height="52" fill="rgb(255,66,49)"/><rect x="970.4" y="280" width="20.6" height="52" fill="rgb(17,25,50)"/><rect x="991.0" y="280" width="267.8" height="52" fill="rgb(255,66,49)"/><rect x="1258.8" y="280" width="20.6" height="52" fill="rgb(17,25,50)"/><rect x="1279.4" y="280" width="20.6" height="52" fill="rgb(5,7,13)"/><rect x="1320.6" y="280" width="927.0" height="52" fill="rgb(255,66,49)"/><rect x="2247.6" y="280" width="20.6" height="52" fill="rgb(10,16,32)"/><rect x="2268.2" y="280" width="226.6" height="52" fill="rgb(255,66,49)"/><rect x="2515.4" y="280" width="20.6" height="52" fill="rgb(5,7,13)"/><text x="84.6" y="324" class="term" style="fill:rgb(239,247,255);font-weight:700">│</text><text x="105.2" y="324" class="term" style="fill:rgb(239,247,255);font-weight:700">&#160;CPU&#160;/&#160;WIREFRAME&#160;LATTICE&#160;CHAMBER&#160;&#160;&#160;&#160;&#160;&#160;&#160;&#160;&#160;&#160;</text><text x="991.0" y="324" class="term" style="fill:rgb(239,247,255);font-weight:700">LIMIT&#160;CASCADE</text><text x="1258.8" y="324" class="term" style="fill:rgb(239,247,255);font-weight:700">│</text><text x="1300.0" y="324" class="term" style="fill:rgb(255,66,49);font-weight:700">│</text><text x="1320.6" y="324" class="term" style="fill:rgb(239,247,255);font-weight:700">&#160;MEMORY&#160;/&#160;HEX&#160;CELL&#160;SHELL&#160;&#160;&#160;&#160;&#160;&#160;&#160;&#160;&#160;&#160;&#160;&#160;&#160;&#160;&#160;&#160;&#160;&#160;&#160;&#160;&#160;</text><text x="2268.2" y="324" class="term" style="fill:rgb(239,247,255);font-weight:700">MEMORY&#160;CRIT</text><text x="2494.8" y="324" class="term" style="fill:rgb(255,66,49);font-weight:700">│</text></g>
<g><rect x="64.0" y="332" width="20.6" height="52" fill="rgb(5,7,13)"/><rect x="84.6" y="332" width="473.8" height="52" fill="rgb(17,25,50)"/><rect x="1258.8" y="332" width="20.6" height="52" fill="rgb(17,25,50)"/><rect x="1279.4" y="332" width="20.6" height="52" fill="rgb(5,7,13)"/><rect x="1320.6" y="332" width="494.4" height="52" fill="rgb(10,16,32)"/><rect x="2515.4" y="332" width="20.6" height="52" fill="rgb(5,7,13)"/><text x="84.6" y="376" class="term" style="fill:rgb(239,247,255);font-weight:700">│</text><text x="105.2" y="376" class="term" style="fill:rgb(255,66,49)">LATTICE&#160;DRIVE&#160;100%&#160;&#160;Δ1</text><text x="1258.8" y="376" class="term" style="fill:rgb(239,247,255);font-weight:700">│</text><text x="1300.0" y="376" class="term" style="fill:rgb(255,66,49);font-weight:700">│</text><text x="1320.6" y="376" class="term" style="fill:rgb(255,66,49)">HEX&#160;SHELL&#160;DRIVE&#160;100%&#160;&#160;Δ2</text><text x="2494.8" y="376" class="term" style="fill:rgb(255,66,49);font-weight:700">│</text></g>
<g><rect x="64.0" y="384" width="20.6" height="52" fill="rgb(5,7,13)"/><rect x="84.6" y="384" width="309.0" height="52" fill="rgb(17,25,50)"/><rect x="1258.8" y="384" width="20.6" height="52" fill="rgb(17,25,50)"/><rect x="1279.4" y="384" width="20.6" height="52" fill="rgb(5,7,13)"/><rect x="1320.6" y="384" width="267.8" height="52" fill="rgb(10,16,32)"/><rect x="2515.4" y="384" width="20.6" height="52" fill="rgb(5,7,13)"/><text x="84.6" y="428" class="term" style="fill:rgb(239,247,255);font-weight:700">│</text><text x="105.2" y="428" class="term" style="fill:rgb(255,66,49)">CPU&#160;/&#160;LOAD&#160;AV…</text><text x="1258.8" y="428" class="term" style="fill:rgb(239,247,255);font-weight:700">│</text><text x="1300.0" y="428" class="term" style="fill:rgb(255,66,49);font-weight:700">│</text><text x="1320.6" y="428" class="term" style="fill:rgb(255,66,49)">MEMORY&#160;/&#160;SWAP</text><text x="2494.8" y="428" class="term" style="fill:rgb(255,66,49);font-weight:700">│</text></g>
<g><rect x="64.0" y="436" width="20.6" height="52" fill="rgb(5,7,13)"/><rect x="84.6" y="436" width="1194.8" height="52" fill="rgb(17,25,50)"/><rect x="1279.4" y="436" width="20.6" height="52" fill="rgb(5,7,13)"/><rect x="1320.6" y="436" width="1174.2" height="52" fill="rgb(10,16,32)"/><rect x="2515.4" y="436" width="20.6" height="52" fill="rgb(5,7,13)"/><text x="84.6" y="480" class="term" style="fill:rgb(239,247,255);font-weight:700">│</text><text x="1258.8" y="480" class="term" style="fill:rgb(239,247,255);font-weight:700">│</text><text x="1300.0" y="480" class="term" style="fill:rgb(255,66,49);font-weight:700">│</text><text x="1320.6" y="480" class="term" style="fill:rgb(255,66,49)">▂&#160;&#160;&#160;&#160;&#160;&#160;&#160;&#160;&#160;&#160;&#160;&#160;&#160;&#160;&#160;&#160;&#160;&#160;&#160;&#160;&#160;&#160;&#160;&#160;&#160;&#160;&#160;▁&#160;&#160;&#160;&#160;&#160;&#160;&#160;&#160;&#160;&#160;&#160;&#160;&#160;&#160;&#160;&#160;&#160;&#160;&#160;&#160;&#160;&#160;&#160;&#160;&#160;&#160;&#160;▄</text><text x="2494.8" y="480" class="term" style="fill:rgb(255,66,49);font-weight:700">│</text></g>
<g><rect x="64.0" y="488" width="20.6" height="52" fill="rgb(5,7,13)"/><rect x="84.6" y="488" width="1194.8" height="52" fill="rgb(17,25,50)"/><rect x="1279.4" y="488" width="20.6" height="52" fill="rgb(5,7,13)"/><rect x="1320.6" y="488" width="1174.2" height="52" fill="rgb(10,16,32)"/><rect x="2515.4" y="488" width="20.6" height="52" fill="rgb(5,7,13)"/><text x="84.6" y="532" class="term" style="fill:rgb(239,247,255);font-weight:700">│</text><text x="1258.8" y="532" class="term" style="fill:rgb(239,247,255);font-weight:700">│</text><text x="1300.0" y="532" class="term" style="fill:rgb(255,66,49);font-weight:700">│</text><text x="1320.6" y="532" class="term" style="fill:rgb(255,66,49)">&#160;&#160;&#160;&#160;&#160;&#160;&#160;&#160;&#160;&#160;&#160;&#160;&#160;&#160;&#160;&#160;&#160;&#160;&#160;&#160;&#160;&#160;&#160;&#160;&#160;&#160;&#160;&#160;&#160;&#160;&#160;&#160;&#160;&#160;&#160;&#160;&#160;&#160;&#160;&#160;&#160;&#160;&#160;&#160;&#160;&#160;&#160;&#160;&#160;&#160;&#160;&#160;&#160;&#160;&#160;▄▄</text><text x="2494.8" y="532" class="term" style="fill:rgb(255,66,49);font-weight:700">│</text></g>
<g><rect x="64.0" y="540" width="20.6" height="52" fill="rgb(5,7,13)"/><rect x="84.6" y="540" width="1194.8" height="52" fill="rgb(17,25,50)"/><rect x="1279.4" y="540" width="20.6" height="52" fill="rgb(5,7,13)"/><rect x="1320.6" y="540" width="1174.2" height="52" fill="rgb(10,16,32)"/><rect x="2515.4" y="540" width="20.6" height="52" fill="rgb(5,7,13)"/><text x="84.6" y="584" class="term" style="fill:rgb(239,247,255);font-weight:700">│</text><text x="1258.8" y="584" class="term" style="fill:rgb(239,247,255);font-weight:700">│</text><text x="1300.0" y="584" class="term" style="fill:rgb(255,66,49);font-weight:700">│</text><text x="1320.6" y="584" class="term" style="fill:rgb(255,66,49)">&#160;&#160;&#160;&#160;&#160;&#160;&#160;&#160;&#160;&#160;&#160;&#160;&#160;&#160;&#160;&#160;&#160;&#160;&#160;&#160;&#160;&#160;&#160;&#160;&#160;&#160;&#160;▂&#160;&#160;&#160;&#160;&#160;&#160;&#160;&#160;&#160;&#160;&#160;&#160;&#160;&#160;&#160;&#160;&#160;&#160;&#160;&#160;&#160;&#160;&#160;&#160;&#160;▁▄▂▁</text><text x="2494.8" y="584" class="term" style="fill:rgb(255,66,49);font-weight:700">│</text></g>
<g><rect x="64.0" y="592" width="20.6" height="52" fill="rgb(5,7,13)"/><rect x="84.6" y="592" width="1194.8" height="52" fill="rgb(17,25,50)"/><rect x="1279.4" y="592" width="20.6" height="52" fill="rgb(5,7,13)"/><rect x="1320.6" y="592" width="1174.2" height="52" fill="rgb(10,16,32)"/><rect x="2515.4" y="592" width="20.6" height="52" fill="rgb(5,7,13)"/><text x="84.6" y="636" class="term" style="fill:rgb(239,247,255);font-weight:700">│</text><text x="1258.8" y="636" class="term" style="fill:rgb(239,247,255);font-weight:700">│</text><text x="1300.0" y="636" class="term" style="fill:rgb(255,66,49);font-weight:700">│</text><text x="1320.6" y="636" class="term" style="fill:rgb(255,66,49)">&#160;&#160;&#160;&#160;&#160;&#160;&#160;&#160;&#160;&#160;&#160;&#160;&#160;▁▁▁▁▁▁&#160;&#160;&#160;&#160;&#160;&#160;&#160;&#160;▁&#160;&#160;&#160;&#160;&#160;&#160;&#160;&#160;&#160;&#160;&#160;&#160;&#160;&#160;&#160;&#160;&#160;&#160;&#160;&#160;&#160;&#160;&#160;▁▁▄▂▂▁</text><text x="2494.8" y="636" class="term" style="fill:rgb(255,66,49);font-weight:700">│</text></g>
<g><rect x="64.0" y="644" width="20.6" height="52" fill="rgb(5,7,13)"/><rect x="84.6" y="644" width="1194.8" height="52" fill="rgb(17,25,50)"/><rect x="1279.4" y="644" width="20.6" height="52" fill="rgb(5,7,13)"/><rect x="1320.6" y="644" width="1174.2" height="52" fill="rgb(10,16,32)"/><rect x="2515.4" y="644" width="20.6" height="52" fill="rgb(5,7,13)"/><text x="84.6" y="688" class="term" style="fill:rgb(239,247,255);font-weight:700">│</text><text x="105.2" y="688" class="term" style="fill:rgb(255,66,49)">────────────────────────────────────────────────────────</text><text x="1258.8" y="688" class="term" style="fill:rgb(239,247,255);font-weight:700">│</text><text x="1300.0" y="688" class="term" style="fill:rgb(255,66,49);font-weight:700">│</text><text x="1320.6" y="688" class="term" style="fill:rgb(255,66,49)">&#160;&#160;&#160;&#160;&#160;&#160;&#160;&#160;&#160;&#160;&#160;▁▁▁▁▁▁▁▁▁▁&#160;&#160;&#160;&#160;&#160;▂&#160;&#160;&#160;&#160;&#160;&#160;&#160;&#160;&#160;&#160;&#160;&#160;&#160;&#160;&#160;&#160;&#160;&#160;&#160;&#160;&#160;&#160;▁▁▁▄▂▁▁▁</text><text x="2494.8" y="688" class="term" style="fill:rgb(255,66,49);font-weight:700">│</text></g>
<g><rect x="64.0" y="696" width="20.6" height="52" fill="rgb(5,7,13)"/><rect x="84.6" y="696" width="1194.8" height="52" fill="rgb(17,25,50)"/><rect x="1279.4" y="696" width="20.6" height="52" fill="rgb(5,7,13)"/><rect x="1320.6" y="696" width="1174.2" height="52" fill="rgb(10,16,32)"/><rect x="2515.4" y="696" width="20.6" height="52" fill="rgb(5,7,13)"/><text x="84.6" y="740" class="term" style="fill:rgb(239,247,255);font-weight:700">│</text><text x="1258.8" y="740" class="term" style="fill:rgb(239,247,255);font-weight:700">│</text><text x="1300.0" y="740" class="term" style="fill:rgb(255,66,49);font-weight:700">│</text><text x="1320.6" y="740" class="term" style="fill:rgb(255,66,49)">&#160;&#160;&#160;&#160;&#160;&#160;&#160;&#160;&#160;▁▁▁▁▁▁▁▁▁▁▁▁▁&#160;&#160;&#160;&#160;▁&#160;&#160;&#160;&#160;&#160;&#160;&#160;&#160;&#160;&#160;&#160;&#160;&#160;&#160;&#160;&#160;&#160;&#160;&#160;&#160;▁▁▁▁▄▂▁▂▁▁</text><text x="2494.8" y="740" class="term" style="fill:rgb(255,66,49);font-weight:700">│</text></g>
<g><rect x="64.0" y="748" width="20.6" height="52" fill="rgb(5,7,13)"/><rect x="84.6" y="748" width="1194.8" height="52" fill="rgb(17,25,50)"/><rect x="1279.4" y="748" width="20.6" height="52" fill="rgb(5,7,13)"/><rect x="1320.6" y="748" width="1174.2" height="52" fill="rgb(10,16,32)"/><rect x="2515.4" y="748" width="20.6" height="52" fill="rgb(5,7,13)"/><text x="84.6" y="792" class="term" style="fill:rgb(239,247,255);font-weight:700">│</text><text x="1258.8" y="792" class="term" style="fill:rgb(239,247,255);font-weight:700">│</text><text x="1300.0" y="792" class="term" style="fill:rgb(255,66,49);font-weight:700">│</text><text x="1320.6" y="792" class="term" style="fill:rgb(255,66,49)">&#160;&#160;&#160;&#160;&#160;&#160;&#160;&#160;▁▁▁▁▁▁▁▁▁▁▁▁▁▁▁▁&#160;▂&#160;&#160;&#160;&#160;&#160;&#160;&#160;&#160;&#160;&#160;&#160;&#160;&#160;&#160;&#160;&#160;&#160;&#160;&#160;▁▁▁▁▁▅▃▁▁▁▁▁</text><text x="2494.8" y="792" class="term" style="fill:rgb(255,66,49);font-weight:700">│</text></g>
<g><rect x="64.0" y="800" width="20.6" height="52" fill="rgb(5,7,13)"/><rect x="84.6" y="800" width="1194.8" height="52" fill="rgb(17,25,50)"/><rect x="1279.4" y="800" width="20.6" height="52" fill="rgb(5,7,13)"/><rect x="1320.6" y="800" width="1174.2" height="52" fill="rgb(10,16,32)"/><rect x="2515.4" y="800" width="20.6" height="52" fill="rgb(5,7,13)"/><text x="84.6" y="844" class="term" style="fill:rgb(239,247,255);font-weight:700">│</text><text x="1258.8" y="844" class="term" style="fill:rgb(239,247,255);font-weight:700">│</text><text x="1300.0" y="844" class="term" style="fill:rgb(255,66,49);font-weight:700">│</text><text x="1320.6" y="844" class="term" style="fill:rgb(255,66,49)">&#160;&#160;&#160;&#160;&#160;&#160;&#160;▁▁▁▁▁▁▁▁▁▁▁▁▁▁▁▁▁▁▁&#160;&#160;&#160;&#160;&#160;&#160;&#160;&#160;&#160;&#160;&#160;&#160;&#160;&#160;&#160;&#160;&#160;&#160;&#160;▁▁▁▁▅▃▁▁▃▁▁▁</text><text x="2494.8" y="844" class="term" style="fill:rgb(255,66,49);font-weight:700">│</text></g>
<g><rect x="64.0" y="852" width="20.6" height="52" fill="rgb(5,7,13)"/><rect x="84.6" y="852" width="1194.8" height="52" fill="rgb(17,25,50)"/><rect x="1279.4" y="852" width="20.6" height="52" fill="rgb(5,7,13)"/><rect x="1320.6" y="852" width="1174.2" height="52" fill="rgb(10,16,32)"/><rect x="2515.4" y="852" width="20.6" height="52" fill="rgb(5,7,13)"/><text x="84.6" y="896" class="term" style="fill:rgb(239,247,255);font-weight:700">│</text><text x="105.2" y="896" class="term" style="fill:rgb(255,66,49)">████████████████████████████████████████████████████████</text><text x="1258.8" y="896" class="term" style="fill:rgb(239,247,255);font-weight:700">│</text><text x="1300.0" y="896" class="term" style="fill:rgb(255,66,49);font-weight:700">│</text><text x="1320.6" y="896" class="term" style="fill:rgb(255,66,49)">&#160;&#160;&#160;&#160;&#160;&#160;▁▁▁▁▁▁▁▁▁▁▁▁▁▁▁▁▁▁▂▁&#160;&#160;&#160;&#160;&#160;&#160;&#160;&#160;&#160;&#160;&#160;&#160;&#160;&#160;&#160;&#160;&#160;▁▁▁▁▁▅▃▁▁▁▂▁▁▁</text><text x="2494.8" y="896" class="term" style="fill:rgb(255,66,49);font-weight:700">│</text></g>
<g><rect x="64.0" y="904" width="20.6" height="52" fill="rgb(5,7,13)"/><rect x="84.6" y="904" width="1194.8" height="52" fill="rgb(17,25,50)"/><rect x="1279.4" y="904" width="20.6" height="52" fill="rgb(5,7,13)"/><rect x="1320.6" y="904" width="1174.2" height="52" fill="rgb(10,16,32)"/><rect x="2515.4" y="904" width="20.6" height="52" fill="rgb(5,7,13)"/><text x="84.6" y="948" class="term" style="fill:rgb(239,247,255);font-weight:700">│</text><text x="105.2" y="948" class="term" style="fill:rgb(255,66,49)">CPU&#160;AVG&#160;0.0%&#160;/&#160;LOAD&#160;AV…&#160;1M&#160;0.78&#160;&#160;&#160;&#160;&#160;&#160;&#160;&#160;&#160;&#160;&#160;&#160;&#160;&#160;&#160;&#160;&#160;&#160;&#160;&#160;&#160;&#160;&#160;&#160;&#160;</text><text x="1258.8" y="948" class="term" style="fill:rgb(239,247,255);font-weight:700">│</text><text x="1300.0" y="948" class="term" style="fill:rgb(255,66,49);font-weight:700">│</text><text x="1320.6" y="948" class="term" style="fill:rgb(90,100,120)">MEMORY&#160;USED&#160;93.5%&#160;/&#160;SWAP&#160;USED&#160;100.0%&#160;&#160;&#160;&#160;&#160;&#160;&#160;&#160;&#160;&#160;&#160;&#160;&#160;&#160;&#160;&#160;&#160;&#160;&#160;&#160;&#160;</text><text x="2494.8" y="948" class="term" style="fill:rgb(255,66,49);font-weight:700">│</text></g>
<g><rect x="64.0" y="956" width="20.6" height="52" fill="rgb(5,7,13)"/><rect x="84.6" y="956" width="1194.8" height="52" fill="rgb(17,25,50)"/><rect x="1279.4" y="956" width="20.6" height="52" fill="rgb(5,7,13)"/><rect x="2515.4" y="956" width="20.6" height="52" fill="rgb(5,7,13)"/><text x="84.6" y="1000" class="term" style="fill:rgb(239,247,255);font-weight:700">└────────────────────────────────────────────────────────┘</text><text x="1300.0" y="1000" class="term" style="fill:rgb(255,66,49);font-weight:700">└─────────────────────────────────────────────────────────┘</text></g>
<g><rect x="64.0" y="1008" width="2472.0" height="52" fill="rgb(5,7,13)"/></g>
<g><rect x="64.0" y="1060" width="20.6" height="52" fill="rgb(5,7,13)"/><rect x="1279.4" y="1060" width="20.6" height="52" fill="rgb(5,7,13)"/><rect x="2515.4" y="1060" width="20.6" height="52" fill="rgb(5,7,13)"/><text x="84.6" y="1104" class="term" style="fill:rgb(255,66,49);font-weight:700">┌────────────────────────────────────────────────────────┐</text><text x="1300.0" y="1104" class="term" style="fill:rgb(255,159,36)">┌─────────────────────────────────────────────────────────┐</text></g>
<g><rect x="64.0" y="1112" width="20.6" height="52" fill="rgb(5,7,13)"/><rect x="105.2" y="1112" width="865.2" height="52" fill="rgb(255,66,49)"/><rect x="970.4" y="1112" width="20.6" height="52" fill="rgb(10,16,32)"/><rect x="991.0" y="1112" width="267.8" height="52" fill="rgb(255,66,49)"/><rect x="1279.4" y="1112" width="20.6" height="52" fill="rgb(5,7,13)"/><rect x="1320.6" y="1112" width="1174.2" height="52" fill="rgb(255,159,36)"/><rect x="2515.4" y="1112" width="20.6" height="52" fill="rgb(5,7,13)"/><text x="84.6" y="1156" class="term" style="fill:rgb(255,66,49);font-weight:700">│</text><text x="105.2" y="1156" class="term" style="fill:rgb(239,247,255);font-weight:700">&#160;NETWORK&#160;/&#160;SOLENOID&#160;FIELD&#160;VOLUME&#160;&#160;&#160;&#160;&#160;&#160;&#160;&#160;&#160;&#160;</text><text x="991.0" y="1156" class="term" style="fill:rgb(239,247,255);font-weight:700">LIMIT&#160;CASCADE</text><text x="1258.8" y="1156" class="term" style="fill:rgb(255,66,49);font-weight:700">│</text><text x="1300.0" y="1156" class="term" style="fill:rgb(255,159,36)">│</text><text x="1320.6" y="1156" class="term" style="fill:rgb(5,7,13);font-weight:700">&#160;PROCESSES&#160;/&#160;PROCESS&#160;MONITOR&#160;&#160;&#160;&#160;&#160;&#160;&#160;&#160;&#160;&#160;&#160;&#160;&#160;&#160;&#160;&#160;&#160;&#160;&#160;&#160;&#160;&#160;&#160;&#160;&#160;&#160;&#160;&#160;&#160;</text><text x="2494.8" y="1156" class="term" style="fill:rgb(255,159,36)">│</text></g>
<g><rect x="64.0" y="1164" width="20.6" height="52" fill="rgb(5,7,13)"/><rect x="105.2" y="1164" width="473.8" height="52" fill="rgb(10,16,32)"/><rect x="1279.4" y="1164" width="20.6" height="52" fill="rgb(5,7,13)"/><rect x="1320.6" y="1164" width="1174.2" height="52" fill="rgb(10,16,32)"/><rect x="2515.4" y="1164" width="20.6" height="52" fill="rgb(5,7,13)"/><text x="84.6" y="1208" class="term" style="fill:rgb(255,66,49);font-weight:700">│</text><text x="105.2" y="1208" class="term" style="fill:rgb(255,66,49)">SOLENOID&#160;DRIVE&#160;100%&#160;&#160;Δ0</text><text x="1258.8" y="1208" class="term" style="fill:rgb(255,66,49);font-weight:700">│</text><text x="1300.0" y="1208" class="term" style="fill:rgb(255,159,36)">│</text><text x="1320.6" y="1208" class="term" style="fill:rgb(239,247,255)">PID&#160;&#160;&#160;&#160;&#160;NAME&#160;&#160;&#160;&#160;&#160;&#160;&#160;&#160;&#160;&#160;&#160;&#160;&#160;CPU%&#160;&#160;&#160;MEM%&#160;&#160;&#160;&#160;&#160;&#160;&#160;&#160;&#160;&#160;&#160;&#160;&#160;&#160;&#160;&#160;&#160;&#160;&#160;&#160;&#160;</text><text x="2494.8" y="1208" class="term" style="fill:rgb(255,159,36)">│</text></g>
<g><rect x="64.0" y="1216" width="20.6" height="52" fill="rgb(5,7,13)"/><rect x="105.2" y="1216" width="144.2" height="52" fill="rgb(10,16,32)"/><rect x="1279.4" y="1216" width="20.6" height="52" fill="rgb(5,7,13)"/><rect x="1320.6" y="1216" width="1174.2" height="52" fill="rgb(10,16,32)"/><rect x="2515.4" y="1216" width="20.6" height="52" fill="rgb(5,7,13)"/><text x="84.6" y="1260" class="term" style="fill:rgb(255,66,49);font-weight:700">│</text><text x="105.2" y="1260" class="term" style="fill:rgb(255,66,49)">NETWORK</text><text x="1258.8" y="1260" class="term" style="fill:rgb(255,66,49);font-weight:700">│</text><text x="1300.0" y="1260" class="term" style="fill:rgb(255,159,36)">│</text><text x="1320.6" y="1260" class="term" style="fill:rgb(239,247,255)">1200517kimi_routed_moe&#160;&#160;&#160;&#160;0.0&#160;&#160;&#160;&#160;1.7&#160;&#160;&#160;&#160;&#160;&#160;&#160;&#160;&#160;&#160;&#160;&#160;&#160;&#160;&#160;&#160;&#160;&#160;&#160;&#160;&#160;</text><text x="2494.8" y="1260" class="term" style="fill:rgb(255,159,36)">│</text></g>
<g><rect x="64.0" y="1268" width="20.6" height="52" fill="rgb(5,7,13)"/><rect x="105.2" y="1268" width="1153.6" height="52" fill="rgb(10,16,32)"/><rect x="1279.4" y="1268" width="20.6" height="52" fill="rgb(5,7,13)"/><rect x="1320.6" y="1268" width="1174.2" height="52" fill="rgb(10,16,32)"/><rect x="2515.4" y="1268" width="20.6" height="52" fill="rgb(5,7,13)"/><text x="84.6" y="1312" class="term" style="fill:rgb(255,66,49);font-weight:700">│</text><text x="1258.8" y="1312" class="term" style="fill:rgb(255,66,49);font-weight:700">│</text><text x="1300.0" y="1312" class="term" style="fill:rgb(255,159,36)">│</text><text x="1320.6" y="1312" class="term" style="fill:rgb(239,247,255)">1200607kimi_routed_moe&#160;&#160;&#160;&#160;0.0&#160;&#160;&#160;&#160;1.7&#160;&#160;&#160;&#160;&#160;&#160;&#160;&#160;&#160;&#160;&#160;&#160;&#160;&#160;&#160;&#160;&#160;&#160;&#160;&#160;&#160;</text><text x="2494.8" y="1312" class="term" style="fill:rgb(255,159,36)">│</text></g>
<g><rect x="64.0" y="1320" width="20.6" height="52" fill="rgb(5,7,13)"/><rect x="105.2" y="1320" width="1153.6" height="52" fill="rgb(10,16,32)"/><rect x="1279.4" y="1320" width="20.6" height="52" fill="rgb(5,7,13)"/><rect x="1320.6" y="1320" width="1174.2" height="52" fill="rgb(10,16,32)"/><rect x="2515.4" y="1320" width="20.6" height="52" fill="rgb(5,7,13)"/><text x="84.6" y="1364" class="term" style="fill:rgb(255,66,49);font-weight:700">│</text><text x="1258.8" y="1364" class="term" style="fill:rgb(255,66,49);font-weight:700">│</text><text x="1300.0" y="1364" class="term" style="fill:rgb(255,159,36)">│</text><text x="1320.6" y="1364" class="term" style="fill:rgb(239,247,255)">1200596kimi_routed_moe&#160;&#160;&#160;&#160;0.0&#160;&#160;&#160;&#160;1.7&#160;&#160;&#160;&#160;&#160;&#160;&#160;&#160;&#160;&#160;&#160;&#160;&#160;&#160;&#160;&#160;&#160;&#160;&#160;&#160;&#160;</text><text x="2494.8" y="1364" class="term" style="fill:rgb(255,159,36)">│</text></g>
<g><rect x="64.0" y="1372" width="20.6" height="52" fill="rgb(5,7,13)"/><rect x="105.2" y="1372" width="1153.6" height="52" fill="rgb(10,16,32)"/><rect x="1279.4" y="1372" width="20.6" height="52" fill="rgb(5,7,13)"/><rect x="1320.6" y="1372" width="1174.2" height="52" fill="rgb(10,16,32)"/><rect x="2515.4" y="1372" width="20.6" height="52" fill="rgb(5,7,13)"/><text x="84.6" y="1416" class="term" style="fill:rgb(255,66,49);font-weight:700">│</text><text x="1258.8" y="1416" class="term" style="fill:rgb(255,66,49);font-weight:700">│</text><text x="1300.0" y="1416" class="term" style="fill:rgb(255,159,36)">│</text><text x="1320.6" y="1416" class="term" style="fill:rgb(239,247,255)">1200488kimi_routed_moe&#160;&#160;&#160;&#160;0.0&#160;&#160;&#160;&#160;1.7&#160;&#160;&#160;&#160;&#160;&#160;&#160;&#160;&#160;&#160;&#160;&#160;&#160;&#160;&#160;&#160;&#160;&#160;&#160;&#160;&#160;</text><text x="2494.8" y="1416" class="term" style="fill:rgb(255,159,36)">│</text></g>
<g><rect x="64.0" y="1424" width="20.6" height="52" fill="rgb(5,7,13)"/><rect x="105.2" y="1424" width="1153.6" height="52" fill="rgb(10,16,32)"/><rect x="1279.4" y="1424" width="20.6" height="52" fill="rgb(5,7,13)"/><rect x="1320.6" y="1424" width="1174.2" height="52" fill="rgb(10,16,32)"/><rect x="2515.4" y="1424" width="20.6" height="52" fill="rgb(5,7,13)"/><text x="84.6" y="1468" class="term" style="fill:rgb(255,66,49);font-weight:700">│</text><text x="1258.8" y="1468" class="term" style="fill:rgb(255,66,49);font-weight:700">│</text><text x="1300.0" y="1468" class="term" style="fill:rgb(255,159,36)">│</text><text x="1320.6" y="1468" class="term" style="fill:rgb(239,247,255)">1200497kimi_routed_moe&#160;&#160;&#160;&#160;0.0&#160;&#160;&#160;&#160;1.7&#160;&#160;&#160;&#160;&#160;&#160;&#160;&#160;&#160;&#160;&#160;&#160;&#160;&#160;&#160;&#160;&#160;&#160;&#160;&#160;&#160;</text><text x="2494.8" y="1468" class="term" style="fill:rgb(255,159,36)">│</text></g>
<g><rect x="64.0" y="1476" width="20.6" height="52" fill="rgb(5,7,13)"/><rect x="105.2" y="1476" width="1153.6" height="52" fill="rgb(10,16,32)"/><rect x="1279.4" y="1476" width="20.6" height="52" fill="rgb(5,7,13)"/><rect x="1320.6" y="1476" width="1174.2" height="52" fill="rgb(10,16,32)"/><rect x="2515.4" y="1476" width="20.6" height="52" fill="rgb(5,7,13)"/><text x="84.6" y="1520" class="term" style="fill:rgb(255,66,49);font-weight:700">│</text><text x="1258.8" y="1520" class="term" style="fill:rgb(255,66,49);font-weight:700">│</text><text x="1300.0" y="1520" class="term" style="fill:rgb(255,159,36)">│</text><text x="1320.6" y="1520" class="term" style="fill:rgb(239,247,255)">1200665kimi_routed_moe&#160;&#160;&#160;&#160;0.0&#160;&#160;&#160;&#160;1.7&#160;&#160;&#160;&#160;&#160;&#160;&#160;&#160;&#160;&#160;&#160;&#160;&#160;&#160;&#160;&#160;&#160;&#160;&#160;&#160;&#160;</text><text x="2494.8" y="1520" class="term" style="fill:rgb(255,159,36)">│</text></g>
<g><rect x="64.0" y="1528" width="20.6" height="52" fill="rgb(5,7,13)"/><rect x="105.2" y="1528" width="1153.6" height="52" fill="rgb(10,16,32)"/><rect x="1279.4" y="1528" width="20.6" height="52" fill="rgb(5,7,13)"/><rect x="1320.6" y="1528" width="1174.2" height="52" fill="rgb(10,16,32)"/><rect x="2515.4" y="1528" width="20.6" height="52" fill="rgb(5,7,13)"/><text x="84.6" y="1572" class="term" style="fill:rgb(255,66,49);font-weight:700">│</text><text x="105.2" y="1572" class="term" style="fill:rgb(255,66,49)">────────────────────────────────────────────────────────</text><text x="1258.8" y="1572" class="term" style="fill:rgb(255,66,49);font-weight:700">│</text><text x="1300.0" y="1572" class="term" style="fill:rgb(255,159,36)">│</text><text x="1320.6" y="1572" class="term" style="fill:rgb(239,247,255)">1200506kimi_routed_moe&#160;&#160;&#160;&#160;0.0&#160;&#160;&#160;&#160;1.6&#160;&#160;&#160;&#160;&#160;&#160;&#160;&#160;&#160;&#160;&#160;&#160;&#160;&#160;&#160;&#160;&#160;&#160;&#160;&#160;&#160;</text><text x="2494.8" y="1572" class="term" style="fill:rgb(255,159,36)">│</text></g>
<g><rect x="64.0" y="1580" width="20.6" height="52" fill="rgb(5,7,13)"/><rect x="105.2" y="1580" width="1153.6" height="52" fill="rgb(10,16,32)"/><rect x="1279.4" y="1580" width="20.6" height="52" fill="rgb(5,7,13)"/><rect x="1320.6" y="1580" width="1174.2" height="52" fill="rgb(10,16,32)"/><rect x="2515.4" y="1580" width="20.6" height="52" fill="rgb(5,7,13)"/><text x="84.6" y="1624" class="term" style="fill:rgb(255,66,49);font-weight:700">│</text><text x="1258.8" y="1624" class="term" style="fill:rgb(255,66,49);font-weight:700">│</text><text x="1300.0" y="1624" class="term" style="fill:rgb(255,159,36)">│</text><text x="1320.6" y="1624" class="term" style="fill:rgb(239,247,255)">1200545kimi_routed_moe&#160;&#160;&#160;&#160;0.0&#160;&#160;&#160;&#160;1.6&#160;&#160;&#160;&#160;&#160;&#160;&#160;&#160;&#160;&#160;&#160;&#160;&#160;&#160;&#160;&#160;&#160;&#160;&#160;&#160;&#160;</text><text x="2494.8" y="1624" class="term" style="fill:rgb(255,159,36)">│</text></g>
<g><rect x="64.0" y="1632" width="20.6" height="52" fill="rgb(5,7,13)"/><rect x="105.2" y="1632" width="1153.6" height="52" fill="rgb(10,16,32)"/><rect x="1279.4" y="1632" width="20.6" height="52" fill="rgb(5,7,13)"/><rect x="1320.6" y="1632" width="1174.2" height="52" fill="rgb(10,16,32)"/><rect x="2515.4" y="1632" width="20.6" height="52" fill="rgb(5,7,13)"/><text x="84.6" y="1676" class="term" style="fill:rgb(255,66,49);font-weight:700">│</text><text x="1258.8" y="1676" class="term" style="fill:rgb(255,66,49);font-weight:700">│</text><text x="1300.0" y="1676" class="term" style="fill:rgb(255,159,36)">│</text><text x="1320.6" y="1676" class="term" style="fill:rgb(239,247,255)">1200430kimi_routed_moe&#160;&#160;&#160;&#160;0.0&#160;&#160;&#160;&#160;1.6&#160;&#160;&#160;&#160;&#160;&#160;&#160;&#160;&#160;&#160;&#160;&#160;&#160;&#160;&#160;&#160;&#160;&#160;&#160;&#160;&#160;</text><text x="2494.8" y="1676" class="term" style="fill:rgb(255,159,36)">│</text></g>
<g><rect x="64.0" y="1684" width="20.6" height="52" fill="rgb(5,7,13)"/><rect x="105.2" y="1684" width="1153.6" height="52" fill="rgb(10,16,32)"/><rect x="1279.4" y="1684" width="20.6" height="52" fill="rgb(5,7,13)"/><rect x="1320.6" y="1684" width="1174.2" height="52" fill="rgb(10,16,32)"/><rect x="2515.4" y="1684" width="20.6" height="52" fill="rgb(5,7,13)"/><text x="84.6" y="1728" class="term" style="fill:rgb(255,66,49);font-weight:700">│</text><text x="1258.8" y="1728" class="term" style="fill:rgb(255,66,49);font-weight:700">│</text><text x="1300.0" y="1728" class="term" style="fill:rgb(255,159,36)">│</text><text x="1320.6" y="1728" class="term" style="fill:rgb(239,247,255)">1200327kimi_routed_moe&#160;&#160;&#160;&#160;0.0&#160;&#160;&#160;&#160;1.6&#160;&#160;&#160;&#160;&#160;&#160;&#160;&#160;&#160;&#160;&#160;&#160;&#160;&#160;&#160;&#160;&#160;&#160;&#160;&#160;&#160;</text><text x="2494.8" y="1728" class="term" style="fill:rgb(255,159,36)">│</text></g>
<g><rect x="64.0" y="1736" width="20.6" height="52" fill="rgb(5,7,13)"/><rect x="105.2" y="1736" width="1153.6" height="52" fill="rgb(10,16,32)"/><rect x="1279.4" y="1736" width="20.6" height="52" fill="rgb(5,7,13)"/><rect x="1320.6" y="1736" width="1174.2" height="52" fill="rgb(10,16,32)"/><rect x="2515.4" y="1736" width="20.6" height="52" fill="rgb(5,7,13)"/><text x="84.6" y="1780" class="term" style="fill:rgb(255,66,49);font-weight:700">│</text><text x="105.2" y="1780" class="term" style="fill:rgb(255,66,49)">████████████████████████████████████████████████████████</text><text x="1258.8" y="1780" class="term" style="fill:rgb(255,66,49);font-weight:700">│</text><text x="1300.0" y="1780" class="term" style="fill:rgb(255,159,36)">│</text><text x="1320.6" y="1780" class="term" style="fill:rgb(239,247,255)">1200356kimi_routed_moe&#160;&#160;&#160;&#160;0.0&#160;&#160;&#160;&#160;1.6&#160;&#160;&#160;&#160;&#160;&#160;&#160;&#160;&#160;&#160;&#160;&#160;&#160;&#160;&#160;&#160;&#160;&#160;&#160;&#160;&#160;</text><text x="2494.8" y="1780" class="term" style="fill:rgb(255,159,36)">│</text></g>
<g><rect x="64.0" y="1788" width="20.6" height="52" fill="rgb(5,7,13)"/><rect x="105.2" y="1788" width="1153.6" height="52" fill="rgb(10,16,32)"/><rect x="1279.4" y="1788" width="20.6" height="52" fill="rgb(5,7,13)"/><rect x="1320.6" y="1788" width="1174.2" height="52" fill="rgb(10,16,32)"/><rect x="2515.4" y="1788" width="20.6" height="52" fill="rgb(5,7,13)"/><text x="84.6" y="1832" class="term" style="fill:rgb(255,66,49);font-weight:700">│</text><text x="105.2" y="1832" class="term" style="fill:rgb(90,100,120)">NETWORK&#160;ENP0S25&#160;0B↓&#160;0B↑&#160;&#160;&#160;&#160;&#160;&#160;&#160;&#160;&#160;&#160;&#160;&#160;&#160;&#160;&#160;&#160;&#160;&#160;&#160;&#160;&#160;&#160;&#160;&#160;&#160;&#160;&#160;&#160;&#160;&#160;&#160;&#160;&#160;</text><text x="1258.8" y="1832" class="term" style="fill:rgb(255,66,49);font-weight:700">│</text><text x="1300.0" y="1832" class="term" style="fill:rgb(255,159,36)">│</text><text x="1320.6" y="1832" class="term" style="fill:rgb(90,100,120)">HOT&#160;KIMI_ROUTED_MOE&#160;0.0%&#160;CPU&#160;&#160;RISE&#160;0%&#160;&#160;&#160;&#160;&#160;&#160;&#160;&#160;&#160;&#160;&#160;&#160;&#160;&#160;&#160;&#160;&#160;&#160;&#160;&#160;</text><text x="2494.8" y="1832" class="term" style="fill:rgb(255,159,36)">│</text></g>
<g><rect x="64.0" y="1840" width="20.6" height="52" fill="rgb(5,7,13)"/><rect x="1279.4" y="1840" width="20.6" height="52" fill="rgb(5,7,13)"/><rect x="2515.4" y="1840" width="20.6" height="52" fill="rgb(5,7,13)"/><text x="84.6" y="1884" class="term" style="fill:rgb(255,66,49);font-weight:700">└────────────────────────────────────────────────────────┘</text><text x="1300.0" y="1884" class="term" style="fill:rgb(255,159,36)">└─────────────────────────────────────────────────────────┘</text></g>
<g><rect x="64.0" y="1892" width="2472.0" height="52" fill="rgb(5,7,13)"/></g>
<g><rect x="64.0" y="1944" width="2472.0" height="52" fill="rgb(10,16,32)"/><text x="64.0" y="1988" class="term" style="fill:rgb(90,100,120)">F1&#160;HELP&#160;&#160;F2&#160;ROUTING&#160;&#160;F3&#160;LAYOUT&#160;&#160;F4&#160;OPTIONS&#160;&#160;ENTER&#160;FULLSCREEN&#160;&#160;,/.&#160;OUTPUT&#160;&#160;&lt;/&gt;&#160;VIZ&#160;&#160;F5&#160;CYCLE&#160;&#160;TAB/ARROWS&#160;FOCUS&#160;&#160;Q&#160;EXIT&#160;&#160;&#160;</text></g>
</svg>
